<svg width="50" height="50" viewBox="0 0 50 50" fill="none" xmlns="http://www.w3.org/2000/svg">
<rect width="50" height="50" rx="7" fill="#77CAEC"/>
<g clip-path="url(#clip0)">
<path d="M32.0452 17.2268H30.6362C30.2468 17.2268 29.9316 17.5419 29.9316 17.9313C29.9316 18.3207 30.2467 18.6359 30.6362 18.6359H32.0452C32.4346 18.6359 32.7497 18.3208 32.7497 17.9313C32.7497 17.5419 32.4346 17.2268 32.0452 17.2268Z" fill="#040932"/>
<path d="M24.9252 14.7981L24.2207 13.3891C24.0453 13.0409 23.6236 12.9013 23.2754 13.074C22.9273 13.248 22.7862 13.6712 22.9603 14.0193L23.6649 15.4283C23.8387 15.775 24.2597 15.9175 24.6102 15.7434C24.9582 15.5694 25.0993 15.1462 24.9252 14.7981Z" fill="#040932"/>
<path d="M29.5428 13.074C29.196 12.9013 28.7715 13.041 28.5974 13.3891L27.8929 14.7981C27.7189 15.1462 27.8599 15.5693 28.208 15.7434C28.5595 15.918 28.98 15.7739 29.1533 15.4283L29.8579 14.0193C30.0319 13.6711 29.8909 13.248 29.5428 13.074Z" fill="#040932"/>
<path d="M22.1819 17.2268H20.7729C20.3835 17.2268 20.0684 17.5419 20.0684 17.9313C20.0684 18.3207 20.3835 18.6359 20.7729 18.6359H22.1819C22.5713 18.6359 22.8864 18.3208 22.8864 17.9313C22.8864 17.5419 22.5713 17.2268 22.1819 17.2268Z" fill="#040932"/>
<path d="M17.9552 24.3188H15.1371C14.7481 24.3188 14.4326 24.6343 14.4326 25.0234V36.2955C14.4326 36.6845 14.748 37 15.1371 37H17.9552C18.3442 37 18.6597 36.6846 18.6597 36.2955V25.0233C18.6597 24.6343 18.3443 24.3188 17.9552 24.3188Z" fill="#040932"/>
<path d="M35.5535 26.1863C35.4293 25.0934 34.4084 24.3188 33.3085 24.3188H27.8159C28.2827 23.483 28.5332 21.1189 28.5221 20.1532C28.5037 18.5547 27.1799 17.2737 25.5813 17.2737H25C24.6106 17.2737 24.2954 17.5888 24.2954 17.9782C24.2954 19.6073 23.6611 22.5479 22.4647 23.7443C21.6594 24.5496 20.971 24.8414 20.0684 25.2925V35.8637C21.4504 36.3243 23.2051 37 25.8796 37H30.4882C32.0067 37 33.1893 35.5936 32.6009 34.1077C33.4974 33.8635 34.1585 33.0413 34.1585 32.0684C34.1585 31.7939 34.1056 31.5311 34.0099 31.2896C35.5207 30.878 36.0767 29.0126 35.0282 27.8413C35.4134 27.411 35.6259 26.8223 35.5535 26.1863Z" fill="#040932"/>
</g>
<defs>
<clipPath id="clip0">
<rect width="24" height="24" fill="white" transform="translate(13 13)"/>
</clipPath>
</defs>
</svg>
