<svg width="359" height="427" viewBox="0 0 359 427" fill="none" xmlns="http://www.w3.org/2000/svg">
<path d="M263.995 310.84L266.878 310.189L267.458 309.575L268.564 308.346L269.561 307.171L270.34 306.268L271.319 305.274L271.736 304.045L272.515 302.816L273.349 301.316L273.966 300.413L274.709 299.907H275.778L276.467 300.611L277.247 301.172L277.954 302.726L278.479 306.503V309.105L278.153 311.544L277.627 313.243L277.247 315.086L276.503 316.695L275.978 319.098L275.398 321.032L274.709 323.381L273.802 325.549L272.969 327.628L272.316 329.977L271.246 332.904L270.503 336.012L268.69 338.181L265.554 338.94L263.017 338.38L262.02 337.53L261.693 335.163L262.02 332.995L261.693 330.555L261.041 329.127L260.696 327.158V326.218L261.113 324.79L261.856 323.851L262.183 322.441L262.672 321.773V320.363L262.11 319.423L261.947 317.345L261.276 316.225L260.696 314.616L261.276 312.827L262.02 311.689L263.995 310.84Z" fill="#20205B" fill-opacity="0.4"/>
<path d="M280.871 52.3879L281.542 50.888L282.068 50.0386L283.264 49.6049L284.17 48.9002L285.24 48.4303L286.182 47.9605L287.053 47.5448L288.031 46.8762L289.518 46.2618L290.515 45.7016L291.856 45.2317L292.654 44.7619L293.669 44.0029L294.503 43.2078L295.192 42.3946L295.772 41.6537L296.678 40.6598L298.165 40.2803H300.757L302.823 39.7201L303.929 39.3406H305.869L307.718 38.9069H309.857L310.636 38.5274L311.996 38.7262L312.939 38.9611H313.845L315.404 39.0515L317.053 38.9972L318.504 38.7623L319.573 38.2925L320.643 37.913L321.005 37.1721L321.712 36.8287L322.165 36.3227H322.854H323.851L324.721 36.7384L325.7 37.2082V38.5274L325.283 39.2322L324.431 40.0454L323.597 41.1296L322.292 41.8344L321.168 42.3585L320.19 43.0632L319.12 43.5331L317.724 43.4427L316.365 42.8283L313.428 42.6837H310.31L308.57 42.9729L306.938 43.1536L305.035 43.6776L303.023 43.8584L302.08 44.3643L300.068 44.9968L299.144 45.7739L297.965 46.2799L297.222 46.8401L296.37 47.2738L295.427 47.9424L294.285 48.6472L293.778 49.8579L293.56 50.8699L294.195 51.647L295.282 52.3879L295.844 53.3095L296.171 54.2311L296.026 55.2973L295.373 56.2189L294.267 57.1044L292.817 57.3032L290.968 57.0321L289.482 56.7068L288.34 55.9659L287.506 55.6226L285.929 54.972L284.478 54.448L282.938 53.96L281.143 53.4179L280.871 52.3879Z" fill="#20205B" fill-opacity="0.4"/>
<path d="M25.8197 4.89725L27.3243 4.3009L28.1944 3.90334L28.9739 3.37928L30.2972 2.85522L31.2579 2.25888L33.6326 1.62639L37.0587 1.21076L41.1917 0.957764L44.3459 0.70477L46.068 0.343349L47.3007 0L50.8899 0.234923L52.467 0.632486L54.4066 0.849338L55.8931 0.957764L57.597 1.21076L59.011 1.77096L60.153 2.09624L61.8751 2.27695L63.2709 2.47573L63.6697 2.94558L62.8903 3.68649L61.3857 4.08405L57.2708 4.93339L55.2042 5.38516L51.8325 5.87308L50.6361 6.32486L48.0077 6.61399L46.5575 6.39714L45.6692 6.28871H44.7447V6.95734L45.1073 7.24648H46.3037L47.8808 7.53561L49.3309 7.71632H51.3068L54.5154 7.53561L55.6937 7.24648L56.4369 6.54171L58.2497 6.361L59.3917 5.99958L60.1893 5.85501H61.0775L61.8207 6.07186H62.564L63.3072 5.62009L65.0293 5.40323L65.6819 4.69846L66.5158 4.33704L67.966 3.84913L68.963 3.70456H70.4675L71.5733 3.84913L72.4071 4.12019H73.5492L74.7275 3.84913L75.5613 3.34314L76.4858 3.41542L77.2291 3.63227L77.6641 4.26476L78.0085 6.32486L78.5342 8.76444L78.6974 10.7523L79.1687 11.6739L79.7306 12.1618L80.347 13.5713L81.0902 14.4207L81.5252 15.8302L82.3954 17.2397L83.193 18.6493L84.1719 19.8781L85.1326 20.2938H86.0933H87.1085L88.3412 20.113L88.8669 19.6613L89.882 18.8119L91.024 17.8903L91.9485 16.7518L92.873 15.7941L93.6525 15.1977L94.9758 14.8002L96.2447 14.4749L97.3867 14.5472L98.4744 14.5833L99.6527 14.7279L100.613 15.017L102.227 15.3423L102.934 16.0832L103.115 16.788V17.6012L102.807 18.2337L102.136 18.9746L101.339 19.6793L100.559 20.4564L99.3627 21.378L98.3837 21.6671L97.278 22.2996L96.4441 22.896L95.5196 23.9622L94.432 24.6669L93.5981 25.6608L92.7643 26.1488L91.8398 27.215L91.0603 28.1727L90.1358 28.9859L89.03 30.2509L88.2324 31.2086L87.6161 32.058L87.2716 33.5398L87.5798 34.7686L87.9424 35.5638L88.6131 36.4492L88.9756 36.9372H90.2446L90.8065 37.2624V38.0756L89.9726 39.1057L89.0844 39.5575L88.6856 40.2984L88.2868 41.7079L88.323 44.0391L88.1599 46.2618L88.033 47.5991L87.5435 47.7798L86.8366 48.2315L86.039 47.9785L84.5525 47.9063L82.8486 47.9785H81.489L80.4738 48.2315L79.495 48.5568L79.1324 49.1532L78.8243 50.0386L79.1687 50.7434L79.6581 51.5566L79.8757 52.7312L80.3107 53.6528L80.8908 54.954L81.2352 55.7672L81.1808 56.9056L80.5282 57.5743L79.6038 58.4236L78.4617 58.785L77.3559 58.3332L76.6852 57.6646L76.1233 56.8514L75.5976 55.4057L75.2532 54.0685L74.1474 53.4721L73.3679 53.1107L72.3165 53.6709L71.7002 54.2673L71.1745 55.0443L71.3558 56.1828L71.8452 56.5804L72.7334 56.7972L73.6036 57.3574L74.7094 57.9899L75.507 58.8031L76.2864 59.8693L76.3408 60.6102L75.1988 60.8632L73.0597 61.1162L71.5552 61.4776L70.812 61.9655L69.0898 62.4173L68.0385 63.0498L66.0626 63.4654L64.8843 64.0979L61.3313 64.4593L57.9596 64.8207L55.9293 65.2725L54.9504 65.6339L53.754 67.2603L52.8839 68.4892L52.2313 69.3385L50.7449 69.9348H49.0409L46.8112 69.6457L44.4003 69.7541L43.5121 70.3866L41.7174 71.1275L41.1917 71.6877L39.3427 72.4648L37.8563 72.8262L37.3306 73.6394L36.8955 74.7417L37.385 75.4826L37.6388 76.079L37.7294 77.7777L37.24 78.4824L36.4605 79.1511C36.4605 79.1511 35.681 79.2595 35.7535 79.1511C35.8079 79.0426 34.9196 78.5186 34.9196 78.5186L33.9045 78.5547L33.542 79.9642L33.2882 81.7352L33.1069 83.6869L32.8531 84.8615L32.3818 85.6385L31.2942 86.777L30.4059 87.5902L29.844 88.2227L28.847 87.8974L28.0675 87.7167L26.8892 87.0481L26.4904 86.2349L26.0553 84.9699L25.439 84.0483L24.7864 84.2652L24.3151 84.6627L23.3181 85.1868L22.5205 85.6747L21.6323 85.7831L20.744 84.7169L19.9102 83.7592L18.6412 82.7291L17.3361 81.6991L16.4116 81.1389L15.0882 80.3979L13.8556 79.5125L12.9855 78.0306L12.5867 76.7657L11.7891 75.6995L12.351 75.067L12.6592 74.1454L11.7891 73.5129L10.212 73.0611L8.97932 72.5732L8.19983 71.6154L7.67415 69.6638L7.09406 68.3627L6.73151 67.0615L6.56836 66.2483V65.5797L7.14845 64.5497L8.0367 63.3208L8.68928 62.7606L8.59864 62.3631L7.80103 62.0378L5.95205 61.7487L4.8644 61.333V60.4114L4.39307 59.7428V58.9115L4.75562 57.7369L5.0638 56.5261L5.64387 55.9298L6.29645 55.4419L7.29346 54.9901L8.27234 55.3154L9.46875 55.4961L10.1757 55.5322L10.8465 55.8937L10.9008 57.3032L10.7377 58.3332L10.1576 59.3271L10.212 59.8512L10.7377 60.2488L11.1727 60.8451L12.0429 61.0981L12.7861 60.7367L13.5293 60.1403V59.2187L13.4749 58.1164L13.0399 57.5923L12.7861 56.7791C12.7861 56.7791 12.5142 56.2551 12.351 56.0744C12.1879 55.8937 11.8797 55.3696 11.8797 55.3696L11.0096 54.3757L9.81317 53.1469L8.48988 52.4059L7.07594 52.4782L6.27832 53.2553L5.17256 54.3938C5.17256 54.3938 4.30244 55.2431 4.19367 55.2792C4.06678 55.3154 3.41421 56.0563 3.41421 56.0563L2.39906 55.7672V53.183L2.05465 50.4181L1.78274 49.0086L1.52895 47.8701L0.731339 46.2076L0.205639 45.3221L-0.718853 44.1656L-2.5316 43.3162L-4.23558 42.7922L-5.25071 42.4669L-6.80966 41.6718L-8.13297 41.0574C-8.13297 41.0574 -10.2358 40.6417 -10.2901 40.6417C-10.3445 40.6417 -11.9941 40.3345 -11.9941 40.3345L-13.4624 39.7743L-14.6226 39.8285L-16.3809 39.7743L-17.7768 39.9912L-19.2451 40.3887L-21.5291 40.4429L-22.3992 40.0454L-23.1243 39.2864L-23.5413 37.9491L-23.9763 37.407L-24.4114 38.4009V39.5755L-25.3359 40.4249L-26.1154 41.4188C-26.1154 41.4188 -27.0217 41.7802 -27.0761 41.7983C-27.1305 41.8163 -28.8889 41.4911 -28.8889 41.4911L-29.6321 40.5514L-30.3391 39.684L-30.8466 38.8346L-31.2817 38.1298L-32.3693 37.2986L-33.3301 36.8287L-36.9918 36.2685L-37.9707 35.871V35.3831L-37.5538 34.9855L-37.2094 34.6783L-35.451 34.5518L-33.602 34.2626H-32.5687L-31.898 33.9554L-30.0128 33.341L-28.9976 32.8712L-28.345 32.3471L-27.6743 31.8231L-27.348 31.046L-27.0943 29.6545L-26.351 28.9859L-25.6441 28.6064L-24.1395 28.3173L-23.36 28.3354L-22.9612 28.5703L-22.4718 28.4257L-21.5473 28.3534L-21.1303 27.739L-20.5684 26.5644L-20.5321 24.2513L-20.224 23.42L-19.7526 22.9683L-18.665 22.0466L-17.7768 21.3419L-16.9066 21.1069H-16.254L-15.7827 21.1973L-15.0576 21.6491L-14.7314 21.7756L-13.7344 21.9924L-12.9549 21.5226L-12.1391 20.9082L-12.0847 20.0408L-12.3566 19.3721L-12.3929 18.7758L-12.121 18.2517L-11.9035 17.5289L-10.8883 17.0771L-10.1632 16.4627L-7.46225 15.9386L-6.12083 15.5772L-5.3051 15.3423L-1.86089 14.9809L0.278152 14.8182L2.39906 15.1254L4.26619 15.4326L5.22695 15.9928L6.20581 16.6253L7.45661 17.0229L8.97932 17.1675L10.1757 17.041L10.9008 16.6253L12.061 15.8483L12.7861 15.3965L13.5112 14.493L13.8193 13.1196L14.0006 11.9088L13.8375 10.2643L13.7287 9.01744L13.91 8.7283L14.5626 7.86089L15.197 7.62597L16.0128 8.0416L16.5747 8.81866L17.2454 9.99327L17.9886 10.951L18.4781 11.7462L19.3663 11.9088L19.9102 10.951L20.7259 9.70414L21.3785 8.38495L21.7229 7.44526L22.4299 6.41521L23.1549 5.5478L24.2063 5.15024L25.8197 4.89725Z" fill="#20205B" fill-opacity="0.4"/>
<path d="M181.715 150.712C181.805 150.857 183.328 150.893 183.328 150.893L185.105 151.218H186.79L187.697 151.688L188.567 152.303L188.893 153.387V154.29V155.429L187.244 155.989L185.558 155.375L184.742 154.471L183.473 153.766L182.567 152.971L181.37 152.176L181.171 151.327L181.715 150.712Z" fill="#20205B" fill-opacity="0.4"/>
<path d="M169.352 145.544L169.75 144.171L170.24 143.809L170.639 142.996L171.545 142.761L172.687 142.96L173.176 143.665L173.611 145.02V146.863L172.814 147.64L171.672 148.237L170.222 147.875L169.787 146.99L169.352 145.544Z" fill="#20205B" fill-opacity="0.4"/>
<path d="M155.394 146.158L155.865 145.056L156.391 145.038L157.207 145.183L157.46 146.429L156.953 147.098C156.953 147.098 156.3 147.875 156.264 147.893C156.228 147.911 155.394 147.893 155.394 147.893L155.031 147.134L154.868 146.502L155.394 146.158Z" fill="#20205B" fill-opacity="0.4"/>
<path d="M134.621 93.4633L135.817 92.2345L136.18 91.6562L136.633 91.349L137.322 90.6984L137.811 90.4635H138.482L139.443 90.8249L139.787 91.349L140.131 91.4393L141.002 91.6743L141.618 92.4694L142.778 92.6863L143.358 93.4633L144.101 94.2404L144.228 95.2523L143.993 96.7703L143.775 97.5835L143.739 98.4328L143.993 99.1015L144.99 100.276L145.987 101.216L147.038 102.535L147.654 103.348L148.488 104.541L149.775 105.77L150.627 106.24L151.697 106.872L152.567 107.794L153.292 109.456L153.618 110.034V111.552L153.364 112.799L152.658 113.414L151.824 114.245L150.645 115.293L149.032 115.492L147.419 115.058L145.171 114.57L143.902 114.353L142.941 114.173L142.089 114.299L140.911 115.022L140.258 115.383L139.66 115.926H138.844L138.482 115.221L138.572 114.751L138.935 114.516L139.008 113.793L137.666 113.161L136.597 112.492L135.872 111.733L135.455 110.703L135.726 109.962L136.488 108.914L137.412 107.83L138.337 106.998L139.624 106.366L140.367 105.734L140.875 105.065L140.73 104.505L138.917 103.818L136.651 102.878L134.729 102.264L133.696 101.143L132.663 99.9508L131.865 98.9207L131.032 97.5654L130.687 96.7884L130.379 95.5234V94.4572L130.85 93.6079L131.34 93.1742L132.047 92.9392L132.663 92.9031L133.116 93.2826L133.624 93.5175L134.621 93.4633Z" fill="#20205B" fill-opacity="0.4"/>
<path d="M127.932 101.27C127.986 101.198 128.784 100.565 128.784 100.565L129.201 100.403H130.397H131.122L131.793 101.017L132.5 101.396L132.953 102.228L133.624 102.86L133.787 104.866L133.932 106.33V107.902L133.37 108.733L132.518 109.727L131.177 110.558L130.76 111.155L129.11 111.679L128.603 112.239C128.603 112.239 127.297 112.853 127.243 112.853C127.189 112.853 125.92 113.179 125.92 113.179L124.905 113.323L123.654 112.763L123.182 112.221L123.056 111.317L122.802 110.468L122.965 109.781L123.092 109.095L123.454 108.842L123.726 108.01L123.545 107.053L123.182 106.529L122.929 105.499L122.983 104.722L123.201 104.197L123.527 103.565L124.179 103.402L125.648 103.077L126.464 102.951L126.735 102.408L127.932 101.27Z" fill="#20205B" fill-opacity="0.4"/>
<path d="M85.9662 68.6337L87.4708 68.2361L89.2291 68.4349L90.8062 68.6337L91.7669 69.1939L92.7458 69.6818L93.2171 70.3143L93.8878 70.5312H94.6855L96.1901 70.0071L97.5859 69.9348H99.0723L100.396 69.8987C100.396 69.8987 101.411 69.3023 101.501 69.3927C101.592 69.483 102.299 68.8506 102.299 68.8506L103.296 68.8144L104.529 68.5976L105.616 69.1216L106.577 69.3927L107.81 69.8264L108.426 70.2782L109.006 70.9468L109.224 71.7239V72.4648L108.879 73.2418L108.354 74.0189L106.776 74.7236L104.837 75.1393L103.477 75.6633L102.734 76.2597L101.465 76.856L100.903 77.2174L99.0904 77.9222L97.5859 78.3198L95.9544 78.6089L94.5042 78.2114L93.6703 77.1813L93.199 76.332L92.3289 75.5911L90.5706 75.1754L88.6853 75.5368L87.8514 75.6453L86.8907 74.9405L86.3287 73.8382L85.7668 72.6093L84.9873 71.3805V69.8264L85.9662 68.6337Z" fill="#20205B" fill-opacity="0.4"/>
<path d="M353.744 241.266L354.034 239.242L354.179 237.869L354.288 236.803L354.56 236.405L354.832 235.953L355.23 235.574C355.23 235.574 355.375 235.357 355.502 235.357C355.629 235.357 356.101 235.357 356.101 235.357H356.699L356.953 235.754L357.079 236.206L357.623 237.995L358.113 239.622L358.475 240.959L358.765 241.519V242.296V242.983L358.439 243.597L358.258 244.139L358.149 244.627L358.095 245.025L357.768 245.278L357.116 245.585C357.116 245.585 356.717 245.91 356.662 245.91C356.608 245.91 356.119 246.091 356.119 246.091H355.321L354.668 245.766L354.252 245.097C354.252 245.097 353.98 244.429 353.98 244.374C353.98 244.302 353.835 243.471 353.798 243.146C353.762 242.82 353.653 242.115 353.653 242.115L353.744 241.266Z" fill="#20205B" fill-opacity="0.4"/>
<path d="M231.112 269.891L230.623 268.788V267.017V265.301L231.112 264.054L231.439 263.385L231.91 262.753L232.418 262.427L233.215 262.174L233.832 261.994H234.647H235.354C235.354 261.994 235.844 261.903 235.934 261.994C236.025 262.084 236.333 262.355 236.388 262.373C236.442 262.391 236.678 262.843 236.678 262.843L236.986 264.072V264.831L236.587 265.373L236.333 266.222L235.862 267.252L235.391 268.029L234.629 268.897L234.176 269.583L233.668 270.252L232.962 270.704L232.218 271.029L231.566 270.668L231.112 269.891Z" fill="#20205B" fill-opacity="0.4"/>
<path d="M610.664 69.3204L610.048 68.0555L609.903 66.5556L609.359 65.3267L610.011 64.0979L610.882 63.3389V62.074L610.265 60.6102L608.906 59.7609L607.999 58.9115L606.023 58.4959L602.434 58.5863L600.748 58.8212L597.25 58.9115L594.549 58.5501L593.806 57.7731L592.881 57.4478L592.083 56.7791L589.981 56.4177L589.02 56.8153L588.186 57.6285L587.443 58.8935L587.044 59.5982L586.482 60.8993L585.431 61.7848L584.778 61.5318L583.817 60.4656L583.11 59.4717L581.479 58.514L579.847 58.0983L578.035 57.8453L576.621 57.8092H573.865L571.019 57.9176L568.917 58.2429L566.814 58.532L563.95 58.8935L562.445 58.785L561.267 58.532L560.469 57.755L559.472 56.6526L557.75 55.6949L555.955 54.5203L554.542 54.1588L552.838 53.942L551.442 53.9781L549.647 53.9059L547.979 53.9781L546.493 54.1227L544.825 54.2673L542.813 54.448L540.366 54.4841L539.586 54.8817L538.716 54.8455L537.882 54.5203L537.085 53.7432L536.033 53.2914L534.855 52.6228L534.275 52.2253L532.825 51.2313L531.592 50.5989L530.541 49.9664L529.798 49.6772L529.054 49.3881L528.257 49.2074H527.423L526.317 49.2435L525.048 49.4604L523.906 49.5327L522.728 49.6772L521.405 49.8941L519.864 49.9302L518.867 49.117L518.124 48.7195L517.235 47.9786L515.912 47.581L513.9 46.7678L513.12 46.0992L513.084 45.2498L513.954 45.1053L516.637 44.6174L518.033 44.1656L520.063 43.6415L520.933 42.9729L520.462 41.7983L519.574 41.2019L518.432 40.714L516.71 40.3887L514.951 40.2442L513.628 39.6478C513.628 39.6478 512.123 39.1599 512.015 39.1599C511.924 39.1599 511.181 39.2322 511.181 39.2322L510.002 39.3045L509.296 39.702L508.19 40.1177L507.301 40.0815L506.522 39.5936L505.688 39.2683L504.709 39.0876L503.839 38.672L503.277 38.8888L502.48 39.178L501.609 39.702L500.83 40.4068L500.268 40.8586L499.652 41.5995V42.5573L501.809 42.9187L503.531 43.4066H506.25L507.863 44.0029L508.516 44.78L509.005 45.9546L508.788 47.0931L508.208 47.7979L508.045 48.8279L507.7 49.4604L507.265 50.0567L506.794 50.5085L506.232 51.1048L505.833 51.7735L505.036 52.1891L504.111 52.1168L503.531 51.9L502.969 51.7915L502.353 52.1168H501.464L500.069 52.3337L499.362 52.659L498.927 52.9842C498.927 52.9842 497.821 52.9842 497.73 52.9842C497.64 52.9842 496.008 52.9842 496.008 52.9842H494.087L493.307 53.2011L492.528 53.3095H491.44L491.222 52.3517L490.57 52.171C490.57 52.171 489.736 51.8819 489.645 51.8819C489.555 51.8819 488.413 52.406 488.413 52.406L487.742 53.1469L486.962 53.9239L486.219 54.4118L485.204 55.225L484.497 55.5865L482.92 55.0985L482.123 54.3215L481.325 53.3276L480.709 52.4782V50.5989L480.31 49.2977L479.784 47.9605L479.512 46.9666L478.189 46.822L476.739 46.569L475.597 46.3522L474.491 46.0992L473.095 45.9546L471.899 46.2437L470.177 46.316L468.291 46.8401L465.645 46.9124L464.72 47.6533L463.723 48.0508L462.762 48.7556L461.258 49.117L460.46 49.605L459.445 49.5327L458.43 49.3881L456.853 48.864L456.11 48.0508L454.007 47.7617L452.502 47.2015L450.835 46.9847L448.804 46.9124L446.266 46.8762L444.472 46.5871L443.058 46.551L441.862 46.9485L439.577 46.7317L439.088 46.316L438.87 45.4305L439.142 45.033L439.886 44.2198L440.756 43.1175L441.717 42.3404L441.898 40.7863L441.59 39.5575L440.448 39.1057L439.668 38.9973L439.269 38.5997L438.309 38.3467L437.221 38.166L435.916 38.2744L433.849 38.1299L432.181 37.913C432.181 37.913 431.184 37.5877 430.514 37.5877C429.843 37.5877 429.335 37.4793 429.245 37.4793C429.154 37.4793 428.447 37.4793 428.32 37.4432C428.193 37.407 427.323 37.407 427.323 37.407L426.653 37.7323L425.601 37.9853L424.405 38.166L423.517 38.3106L423.172 39.0153L421.867 39.0515L421.378 38.2744L420.906 37.3528L419.819 36.8287L419.166 36.5757L418.368 36.0155L417.535 35.618L416.737 35.2927L415.631 35.0036C415.631 35.0036 414.235 34.859 414.127 34.7867C414 34.7144 412.64 35.0397 412.64 35.0397L411.806 35.4915L411.226 35.9433L410.247 36.6842L409.16 37.0817L407.854 37.5335L406.676 38.166L406.314 38.5636L404.646 39.196L403.341 39.6478C403.341 39.6478 402.235 40.208 402.072 40.208C401.909 40.208 400.749 40.0635 400.622 39.955C400.495 39.8466 400.042 39.5575 400.042 39.5575L399.045 39.2683L397.939 39.196L396.543 38.5636L395.836 38.1479H394.821H393.498L392.573 38.4009L391.685 38.9611L390.452 39.1418L389.364 39.7382L388.567 40.4068L387.37 41.0574L386.265 41.4369L385.105 41.5272H383.944C383.944 41.5272 382.621 41.4369 382.331 41.3465C382.041 41.2561 381.298 41.2019 380.808 41.1116C380.319 41.0212 379.648 41.1116 379.648 41.1116L378.669 41.4911H377.11L376.041 42.0151L374.808 42.6838L373.702 43.0632L372.47 43.4789L371.491 44.3824L370.512 44.6716L369.932 45.4667L369.062 45.7016L368.083 46.1715L367.213 46.5871L365.599 46.8762L365.183 47.2557L364.693 47.8701L363.624 47.6894H362.427L361.358 47.5991L360.324 47.5449L359.219 47.2557H357.732H356.5L355.684 47.7256L355.357 48.1412L355.267 48.8098L356.173 49.4242L356.953 50.0929L357.732 50.6169L358.838 51.141L360.27 51.6108L361.593 52.3156L362.989 53.1649L363.696 54.1588L364.349 55.2431L364.512 56.6526L363.732 57.8815L363.025 58.6405L361.992 58.8754L361.376 58.2068L360.796 56.8334L360.669 55.5142L359.799 54.1046L359.055 53.3457L357.442 52.93L356.536 52.3698L355.104 52.2253L353.944 51.2856L353.4 50.6711L352.294 49.6772L351.315 49.0086L350.209 48.593H349.629L348.107 49.1532L347.454 50.0025L346.964 51.3217L346.475 52.3156L346.348 54.2492L345.696 54.6287L345.442 55.0443L344.535 55.1889L343.792 55.2793L343.085 55.225L342.886 54.2311L342.723 53.0927L342.632 51.5928L342.269 49.9483L341.816 49.0086L341.164 49.0628L340.62 49.8579L339.913 50.9422L339.206 52.0265L338.753 52.7312L338.952 54.3757L339.568 55.225L339.931 56.8695L339.677 59.038L339.26 59.9416L339.623 60.9716L340.366 61.3873L340.729 61.062L341.599 60.3572L342.632 59.5621L343.176 59.1826L343.883 58.8031L345.696 58.4236L347.019 58.1345L348.125 58.0803L349.158 58.785L349.611 59.4898L350.064 60.1042C350.064 60.1042 350.318 61.8571 350.354 62.0378C350.391 62.2185 350.681 62.6522 350.681 62.6522L350.101 63.1763L349.357 63.7365C349.357 63.7365 347.998 64.2605 347.871 64.2605C347.744 64.2605 346.475 64.0256 346.475 64.0256L345.569 63.6461L344.952 62.851L344.173 61.9475L343.14 61.3873L342.596 61.6764L341.617 62.1462L341.254 63.0498L340.312 63.5738L339.369 64.6039L338.499 65.6882L337.883 66.3568L337.067 67.4953L336.287 68.2542L335.019 68.7241L334.402 69.2843L332.553 69.7541L331.973 70.0433L331.32 70.1878L330.704 69.3927L331.357 68.5434L331.901 67.7844L332.771 66.8447L333.713 66.3206L334.91 65.146L336.07 64.2967L336.396 62.7426L336.759 61.4776L336.215 60.0681L335.762 58.279L335.145 55.731L335.472 54.0866L336.088 53.2372L336.505 52.2433L336.596 51.3398L336.016 50.1109L334.91 49.6953L334.003 49.0267L332.97 48.2316L331.647 47.0931L330.378 46.6232H329.272L328.203 47.0389L327.423 47.9786L326.517 49.0628L325.357 50.2013L324.088 51.1952L323.725 52.0988L322.456 53.183L320.807 53.8516L319.828 54.7552L319.737 56.3093L320.843 57.3936L322.166 58.2971L323.036 58.9657L324.758 59.9054L325.701 60.9355L325.048 62.3992L324.595 63.0679L323.435 63.0136L322.619 62.2185L320.843 61.6583L319.447 61.1343L317.471 60.6644L315.822 60.1404L313.519 59.9054L312.45 59.291L311.181 58.8212L309.114 58.7308L306.486 58.6405L304.546 59.02L303.803 59.8693L303.024 61.1343L301.7 62.1643L301.084 62.8691L300.051 62.6342L299.108 62.0197L298.111 61.4957L297.295 60.9355L295.446 61.1704L294.087 61.839L292.854 61.7848L291.621 61.315H290.516L289.446 62.2185L288.63 63.3028L287.017 63.1582L286.074 62.5438C286.074 62.5438 284.516 61.9836 284.298 61.839C284.099 61.6945 282.739 61.5138 282.739 61.5138L281.18 62.3089L279.694 63.0136L278.262 63.8088L276.122 64.369L273.73 64.1883L272.044 63.9533L270.684 64.2786L269.742 65.0376L269.035 66.3026L268.165 67.441H266.841L266.642 65.7424L267.258 64.9834L267.748 63.9895L268.618 62.9052L268.201 61.586L267.621 61.0258L266.225 60.8813L264.539 60.7367L263.016 60.9174L262.11 61.586L261.403 62.8149L261.693 64.7485L261.983 66.0676L262.763 67.0977L262.889 69.6457L262.183 70.3505L261.729 70.7661L260.986 69.3024L261.077 68.3627L260.17 67.423H259.681H259.101L258.158 67.7121L257.451 68.3265L256.128 68.7422L255.258 69.1578L254.061 69.4831L252.339 69.8626L252.176 70.2421L252.212 71.8865L251.85 72.9708L251.27 73.5852L250.817 74.3803L250.037 74.9044L248.388 75.0851L247.735 74.2357L246.956 74.055L246.085 73.2599L245.215 72.9346L243.892 73.1696L242.949 74.1093L242.297 74.4345C242.297 74.4345 241.753 74.9947 241.644 75.1032C241.517 75.1935 240.484 75.1032 240.484 75.1032L240.121 74.308L239.831 73.4045L239.414 71.9949L238.998 70.0613L238.218 69.5011L237.856 68.8325L237.275 68.1639L237.765 67.7483L238.635 67.6579L239.088 68.3265L240.285 68.6518L242.913 69.1217L244.635 69.6819H247.155L248.804 68.9771L251.234 68.5614L252.557 67.8025L254.533 67.5133L255.765 66.8447L256.382 66.1399L255.729 65.2002L255.022 64.2605L252.593 63.8449L250.327 62.8149L246.665 62.2908L242.714 61.8752L239.831 61.08L236.75 59.8512L234.448 58.767L232.345 57.5381L230.006 56.7791L226.254 56.1647L222.429 55.7491L219.746 55.2793L217.281 54.954L214.072 54.7733H211.77L209.885 55.0082L208.108 55.6226L206.423 56.0382L203.957 56.6526L202.235 56.9418L200.749 57.5562L199.063 57.9357L197.576 58.2248L195.564 58.6947L194.622 59.4537L193.135 59.8331L191.703 60.0681L190.271 60.7728L188.331 61.2969L187.171 62.2005L187.008 63.2847L186.428 64.6943L185.159 65.7243L183.999 66.7543L182.839 67.929L182.059 68.7783L181.244 69.8806L180.827 70.6577L179.92 71.2721L178.434 72.266L176.911 73.1696L176.367 73.9647L175.334 74.6333L174.301 75.3381L173.431 75.8621L172.524 76.3862C172.524 76.3862 170.802 76.9464 170.639 76.9464C170.476 76.9464 168.627 77.5608 168.627 77.5608L167.594 78.2837L166.778 78.6089L166.27 79.3679L164.947 79.6209L164.041 80.651L163.098 81.6449L162.627 81.8075L162.681 81.8979L162.083 83.1267L162.246 83.723L163.026 84.2832L163.116 86.0361L163.479 87.7709L163.968 91.0237L164.893 92.5778L166.125 93.7163L167.431 93.7524L169.497 94.4572L171.292 94.3488L173.539 93.5356L174.101 91.8369L174.881 90.7707L175.932 89.9575L176.82 89.7045L177.256 91.0779L177.817 92.0357L178.398 93.6621L178.579 94.1139L179.068 95.0716L179.413 96.8607L179.993 97.71L179.449 98.1256L178.905 98.6497L179.268 100.059L180.754 100.764L181.624 100.475L182.821 100.005L184.38 99.5352L186.446 99.2099L187.552 98.7401L189.401 98.0714L191.576 97.6558L192.555 96.192L192.646 94.5476L193.135 93.0658L193.878 91.9273L195.075 90.8249L196.253 89.2708L197.25 87.6806L197.812 86.4698L196.978 85.241L195.564 84.6808L194.259 84.0483L192.954 83.5243L192.9 82.3496L193.461 81.7172L194.332 80.5787L195.039 79.7293L196.144 79.2414L197.341 78.7535L200.151 78.5367L200.803 78.0487L202.036 77.4162L203.142 76.1874L204.12 74.8502L204.791 74.037L204.918 72.8624L205.081 72.0853L204.646 71.3082L204.7 70.6035L205.045 70.2782L205.697 69.8806L206.749 70.0975L208.689 70.0613L210.229 69.8806H211.988H213.293L213.945 70.4408L214.109 71.5793L213.529 72.0311L212.876 72.6636L211.77 73.1876L211.371 73.5129L210.664 73.9647L210.012 74.561L208.906 75.3019L208.108 75.6995L206.803 76.4043L206.459 77.0006L204.918 77.6692L204.12 78.4102L203.685 79.6209L203.432 80.5064L203.685 81.8075L204.12 82.693L204.61 83.3978L204.864 84.7712L205.389 85.5844L205.861 86.9577L206.64 87.4818L207.528 87.8432L208.507 87.2469L209.432 87.1023L210.393 86.777L211.317 86.2168L211.97 85.7289L212.858 85.1326L213.746 85.3856L214.671 85.5301H216.157L217.299 85.3133L218.532 85.1326H221.341L222.175 85.9096L223.064 87.012L223.644 87.4999L223.916 88.7106L223.027 89.2708L221.849 89.4877L220.544 89.813H217.299L214.924 90.1382H211.752L208.29 90.3912L207.71 90.7527L208.489 91.5659L209.051 92.1983L210.03 92.6863L210.701 93.644L211.19 94.2765L210.791 94.909L210.139 95.0897L209.124 95.0174L208.235 94.8006L207.057 94.2404L206.06 93.644H204.827L204.084 94.2042L203.504 94.8006L202.888 95.7583L202 96.8245L201.329 98.6678L201.202 100.403L200.839 103.945L200.132 103.981L199.045 103.619L197.649 102.987L195.981 102.463L193.081 102.318L192.156 102.914L190.67 103.547L189.872 104.143L187.933 104.631L186.972 104.848L186.573 105.517L185.558 105.264L184.778 104.595L183.908 104.179L182.513 104.107L180.591 104.179L179.793 104.216L179.268 104.469L178.706 103.981L177.908 103.836L176.857 102.914L176.295 101.433L175.987 100.583V99.3183L176.24 98.3244V97.2582L175.805 96.192H174.265H172.47L170.548 97.5293L169.751 99.228L169.388 101.559L169.696 103.258L170.621 104.324L172.162 105.95L171.727 106.8L170.857 106.727L170.186 105.95H167.467H165.056L163.696 107.017L162.518 108.282L161.104 109.836L159.309 111.101L157.642 112.022L155.485 112.239L154.433 112.944L153.636 113.576L153.454 115.058L152.711 116.395L152.04 117.172L150.989 117.805L149.376 117.877L147.889 118.022L145.968 118.51L143.992 118.654L143.249 118.871L142.995 119.793H141.019L140.403 120.498L138.989 120.985L136.831 121.13L136.578 121.979L137.321 122.829L139.605 123.389L141.091 123.877L142.397 124.437L143.937 125.286L145.043 126.063L145.786 126.696L145.841 129.533L145.478 132.298L144.862 133.563L143.937 135.334L143.013 136.183L140.112 136.111L138.572 135.749L136.65 135.388L133.931 135.243C133.931 135.243 131.701 135.027 131.085 134.828C130.469 134.611 128.674 134.828 128.674 134.828L126.263 135.243L125.339 136.725L125.03 138.496L125.049 141.279L125.411 142.418L125.955 143.737L126.046 145.815L125.266 146.574L124.197 147.893L123.544 148.562L123.671 149.881L124.215 151.67L125.03 152.61L125.973 154.019L126.879 154.688L128.112 155.718L129.182 154.724L131.194 154.634L132.136 155.899L133.206 157.453L133.75 158.862L135.236 158.627L135.979 157.959L136.342 156.73L136.668 155.826L139.188 156.116L141.001 155.826L142.523 155.357L144.989 154.977L146.022 153.748L146.729 152.429L147.599 151.724L148.922 151.309L149.086 150.224L148.632 149.086L148.306 147.767L148.796 146.737L149.901 145.598L151.388 143.954L152.548 143.195L153.654 142.779L155.92 142.49L156.536 141.695L157.189 140.936L157.442 139.291V137.882L158.349 136.978L159.328 136.219H160.524L162.137 136.888L163.297 137.213L164.331 137.773L165.654 137.629L167.267 136.924L168.699 135.93L169.733 135.316L170.548 134.611L171.781 133.852L174.083 134.557L175.062 135.551L175.352 136.96L176.095 138.099L177.201 139.418L178.76 140.882L179.793 141.641L180.954 141.93L182.114 142.544L183.636 143.249L185.195 143.809L187.008 144.514L188.368 145.128L189.31 146.393L189.763 147.658L190.253 148.363L190.543 149.682L190.67 150.947L191.322 151.417H192.646L192.736 150.008V148.779L192.537 147.694L191.993 147.17L191.83 146.411L192.029 145.562L192.646 145.183L193.552 145.472L194.821 145.327L195.528 144.911L195.365 143.881L193.643 143.466L193.153 142.906L192.247 142.382L191.304 141.442L190.652 140.972L189.455 140.412L188.585 139.852L187.262 138.858L186.319 138.008L185.377 136.78L184.398 135.46L183.365 134.376L182.041 133.617L181.171 132.388L180.392 131.159L180.935 130.256L181.842 129.696L183.328 129.84L184.108 130.635L185.05 131.394L185.993 132.189L186.736 132.659L187.715 133.653L188.658 134.358L189.763 135.496L190.742 135.966L191.395 136.635L192.555 137.665L193.588 138.695L194.567 139.255L195.673 140.394L196.616 141.478L197.595 142.418L198.465 144.821L199.371 146.05L200.187 147.604L200.966 148.869L201.583 149.899L202.326 151.453L203.105 152.772L203.359 153.766L204.012 155.519L204.918 156.983L205.897 157.073L206.894 156.694L207.601 155.935L208.67 155.32L209.486 154.796L210.302 153.802L211.208 153.278L211.698 152.194V151.02L211.154 149.881L210.574 149.321L209.704 148.562L208.96 148.092L208.217 147.622L208.507 146.628L209.214 146.068L210.773 145.544L211.589 144.984L212.532 144.189L213.311 143.719L213.674 143.195L214.707 143.014L215.45 143.773L215.994 144.622L216.157 146.176V148.58L216.248 152.158L217.118 153.296L217.988 153.676L219.057 154.435L220.127 154.381L221.16 155.555L222.157 156.405L223.064 156.64L224.224 157.254L225.656 157.724L226.725 157.543L227.469 156.874L229.644 156.784L230.804 157.254L231.547 157.579L232.943 158.049L234.339 157.868L235.571 157.254L237.257 156.838L239.034 156.513L239.686 155.754L240.557 156.513L240.973 157.272L240.937 158.537L240.738 160.615L240.158 161.79L239.958 163.055L239.795 164.519L239.179 165.747L239.088 166.741L238.272 167.446L237.457 168.91L236.351 170.175L236.061 171.584L235.082 172.054L233.886 172.614L232.653 173.03L231.873 172.885L231.003 172.09L230.55 171.711L229.97 170.916L228.991 170.861L227.505 171.277L225.692 171.747L224.006 171.928L222.937 172.777L221.577 173.391L220.761 174.385L219.891 175.795L218.985 176.554L218.205 177.259L217.299 176.843L217.625 176.174L218.278 175.235L219.257 174.241C219.257 174.241 219.547 173.771 219.547 173.572C219.547 173.391 220.616 173.048 220.616 173.048L221.233 171.91L222.139 171.151V170.301L220.489 169.777L218.64 169.398L217.208 169.868L213.13 169.723L210.991 168.964L209.142 168.295L207.71 167.5L205.444 167.175L204.048 167.265L202.652 167.789L201.836 168.585L200.857 169.615L199.915 170.789L198.682 171.964L198.193 172.958L197.286 173.572H196.217H195.31L194.694 173.156L192.102 172.831L190.615 172.036L189.673 171.096L188.567 170.536L187.697 169.597L186.718 168.928L185.359 168.783L184.289 168.368L182.277 167.844L180.428 167.085L179.195 166.091L178.289 165.187L176.893 164.627L175.334 163.543L174.681 162.874L174.645 161.79L175.515 161.465L177.002 160.85L177.709 159.296L177.419 156.838L176.422 155.338L175.388 153.549L174.029 152.881L173.322 152.556H171.763L171.056 153.08L169.896 153.369L168.119 153.929L166.017 153.983L163.225 154.037L161.285 154.182L159.219 154.326L157.569 153.911L156.21 154.146L154.977 154.471L153.545 154.616L152.385 155.465L150.953 155.646L149.883 156.549L148.234 156.965L147.001 157.76L145.061 158.7L143.448 159.26L141.436 160.163L141.037 160.687L140.112 161.013L139.315 160.724L138.753 160.308C138.753 160.308 137.792 160.019 137.448 159.892C137.103 159.748 135.073 160.001 135.073 160.001L133.877 160.453L133.17 160.778L132.463 161.591L130.704 162.477L129.689 163.47L128.855 164.284L128.185 164.699L127.079 165.332L125.991 166.47L125.248 167.609L124.994 168.386L124.215 170.084L123.961 172.632L123.29 175.433L123.018 177.385L122.547 178.415L121.278 178.524L120.698 179.048L119.284 179.716L119.012 180.24L117.562 180.764L116.511 181.794L115.858 182.355L114.498 183.096L113.665 184.053L113.175 185.12L112.649 185.897L111.779 187.306L111.036 189.258L110.51 190.487L109.84 191.697L109.314 193.215L108.661 194.806L107.954 195.872L107.121 197.101L106.649 199.721L107.012 202.377L107.574 203.407L108.063 205.811L108.462 206.696L108.897 208.359L108.951 211.16L108.48 212.714L107.918 213.383L107.447 214.304L107.012 215.154L106.178 215.714L105.87 216.816L105.217 217.629L104.782 218.732L104.347 219.364L104.075 220.466L104.655 221.243L105.127 222.093L105.616 222.545L105.96 223.647L106.015 225.382L105.616 226.448V227.37L105.924 228.779L106.722 229.737L107.61 230.767L108.806 231.164L109.677 231.833L111.072 232.791L112.305 233.785L113.61 235.267L114.662 236.405L114.915 237.507L115.278 239.206L116.456 240.345L117.417 241.447L117.943 241.971L119.03 243.308L120.39 244.898L121.187 245.603L122.166 246.561L123.526 247.736L125.157 249.507L126.481 250.645L127.46 251.53L128.457 252.163L129.544 252.235L130.034 251.35L130.831 250.247L131.72 249.181L132.698 248.729L136.995 248.205L140.366 248.242L141.907 249.127L143.23 249.019L144.807 248.422L146.947 248.278L148.052 247.645L149.448 247.23L150.336 246.561L151.732 246.073L152.312 245.549L153.617 244.989L154.143 244.537L155.503 244.049L156.264 243.597L157.46 243.417L158.693 243.489L159.491 244.158L160.27 244.862L160.923 245.314L161.757 246.687L162.155 248.278L162.717 248.802L163.37 250.609L164.168 251.494L165.708 251.946L166.905 251.549L168.264 250.808L169.624 250.139L170.639 249.326L171.201 248.928L171.817 249.38L172.905 250.157L173.866 250.645L174.428 251.422L175.407 252.127L175.987 252.94L175.823 253.609L175.425 254.422L174.754 255.416L174.265 256.301L173.775 257.006L173.594 258.596L173.539 260.512L173.068 262.355L172.597 263.692L172.198 265.391L171.727 266.204L171.545 267.379L171.799 269.005L172.669 269.529L173.376 270.053L174.555 271.011L175.334 272.077L176.639 273.848L177.346 275.113L178.488 276.378L178.796 277.372L180.12 279.739L180.519 280.48L181.189 281.745L181.552 282.305L182.077 284.04L182.567 284.817L182.44 286.082C182.44 286.082 182.168 287.293 182.168 287.383C182.168 287.492 182.259 289.678 182.259 289.678L182.204 291.413L183.002 293.076L184.053 295.154L184.797 296.22L184.923 297.594L184.144 298.624L182.875 299.401L182.313 300.214L181.262 301.732L180.247 303.069L179.848 304.804L179.231 305.834L179.068 309.34L179.322 312.629L179.685 314.327L180.21 316.478L180.428 317.327L181.099 318.502L181.534 319.532L182.096 320.526L182.748 321.791L183.056 323.056L183.618 323.869L184.198 325.495L185.377 326.977L185.957 327.935L186.428 329.633L187.008 331.115L187.28 332.29L187.86 333.428V338.054V342.157L188.821 343.891L189.401 344.524L190.271 346.006L190.887 347.271L192.301 349.042L193.443 350.885L193.933 351.951L194.458 353.162L194.821 354.933L195.22 355.565L195.437 357.481V360.246L196.017 361.8L196.326 363.643L197.286 364.239L198.066 364.8L199.117 365.36L200.169 365.884H201.836L202.543 365.215L203.558 364.854L204.265 364.149L204.845 363.968L207.22 363.788L211.226 363.86L213.021 364.149L214.109 363.896L215.813 363.083L217.317 362.559L219.166 361.601L220.181 360.86L221.885 359.649L223.825 357.463L226.472 354.915L227.396 353.433L228.701 351.554L233.179 346.313L233.65 345.102L234.393 344.036V343.187L234.121 342.301L233.505 341.596V340.368L234.031 338.886L234.647 338.109L235.698 337.711L236.623 336.934L237.711 336.446L238.454 335.705L239.759 335.254L240.194 334.187L240.557 333.663L240.593 332.597L240.158 331.567L240.067 328.73L239.578 327.989L239.052 325.586L238.689 325.061L238.653 324.176C238.653 324.176 239.269 322.224 239.36 322.224C239.451 322.224 239.976 321.375 239.976 321.375C239.976 321.375 240.973 320.038 241.064 320.002C241.155 319.965 241.717 318.773 241.717 318.773L242.768 318.104L243.783 316.839L244.563 316.424L246.067 315.683L246.774 315.086L248.224 314.562L249.675 313.894L250.472 312.629L251.56 310.659L252.557 309.014L252.756 306.792L253.336 305.617L253.626 303.304L253.427 301.19L253.264 299.491L252.974 297.738L253.336 296.13L253.626 294.901L253.753 293.762L253.01 292.353L251.814 290.98L251.07 290.04L250.581 288.63L250.418 286.787L250.092 284.709V282.956L249.729 281.546L249.149 280.516V279.053L249.511 277.968L249.548 276.703L250.653 275.619L251.397 274.716L252.466 273.451L253.536 272.511L254.352 270.866L255.131 269.836C255.131 269.836 255.385 268.897 255.548 268.897C255.711 268.897 256.364 267.343 256.364 267.343L257.433 265.879L258.503 264.614L259.699 263.385L260.932 262.12L262.708 259.897L263.941 258.958L264.72 258.163L265.953 257.783L267.313 256.88L268.418 255.849L269.977 254.44L271.083 253.067L271.627 251.603L272.497 250.374L272.95 248.675L273.657 247.266L274.564 245.712L275.669 243.688L276.612 242.368L277.518 240.869L278.262 239.604L278.624 238.465L279.077 237.001L279.404 235.827L280.111 234.508L280.02 232.158L280.382 230.279L280.346 228.815L279.277 228.4L278.533 228.58L277.373 228.761L276.268 228.942L275.162 229.177L274.002 229.845L273.258 230.08L272.678 230.369L272.098 230.839L270.576 231.128L269.542 231.652L268.02 232.267L266.986 233.062L265.627 233.206L264.593 233.441L263.85 233.731L262.744 234.056L261.639 234.146L260.823 233.965L260.279 233.261L259.826 232.646L259.572 232.122C259.572 232.122 259.409 231.219 259.318 230.984C259.228 230.749 259.772 230.08 259.772 230.08L259.898 229.375L259.808 228.58L259.155 227.586L258.901 226.448L258.285 225.508L257.379 224.478L256.382 222.364L255.058 221.225L254.152 220.286L253.246 219.382L252.303 218.587L251.433 216.979L250.527 215.479C250.527 215.479 250.4 214.214 250.164 214.214C249.91 214.214 249.548 212.66 249.548 212.66L248.442 210.311L247.536 208.196L246.665 206.732L245.687 205.359L244.871 203.606L244.418 202.468L243.838 200.444L242.859 197.95L242.242 196.577L242.043 195.402L241.263 194.318L240.611 192.709L240.067 191.77L239.705 190.902L239.088 189.402L238.671 188.336L238.109 187.396L237.819 186.258L237.239 184.306L236.224 182.933L236.007 182.445L236.278 181.831L237.094 181.216L237.982 180.999L239.288 180.782L240.484 180.873L241.445 182.644L242.387 184.74L243.004 186.583L243.475 187.74L244.182 189.511L244.508 191.426L245.668 191.842L246.738 192.854L247.3 193.956L247.735 196.504L248.152 198.058L248.714 199.359L249.276 200.317L249.62 201.654L250.545 203.335L252.339 204.835C252.339 204.835 253.409 206.136 253.499 206.281C253.59 206.425 254.569 207.437 254.569 207.437L255.657 208.305L256.237 209.678L256.636 210.943L257.306 212.732L257.723 214.232L258.285 216.961L258.593 218.226L259.3 222.093L259.572 222.924L260.207 224.641L260.859 225.418C260.859 225.418 261.856 225.978 261.965 225.96C262.092 225.942 263.18 225.87 263.18 225.87L264.557 225.49L266.732 225.4L267.838 224.912L269.669 224.316L270.612 223.864L271.428 223.249L272.37 222.527L273.766 222.075L275.47 221.063L276.249 220.394L278.262 219.834L279.911 219.418L281.869 218.822L282.884 218.37L283.845 217.683L284.425 217.123L285.694 216.834L287.126 215.985L288.558 215.605L289.428 214.973L291.096 214.449L291.984 213.617L292.6 212.84L293.398 212.172L294.504 211.16L295.827 209.75L296.534 208.847L297.114 207.889L298.075 207.022L298.274 205.955L298.891 205.287L299.144 204.618L299.851 203.823L299.96 203.064L300.377 202.215L300.993 201.618L301.936 200.118L302.824 199.106L303.024 198.275L302.824 197.263L302.226 196.324L301.573 195.619L300.848 194.661L299.96 193.902L299.017 193.523L297.984 192.764L296.77 192.366L296.153 191.752L294.957 191.535L294.359 190.74L294.069 190.017L293.434 189.529L293.289 188.535L292.528 188.445C292.528 188.445 291.748 188.679 291.621 188.698C291.495 188.716 291.259 189.655 291.205 189.728C291.15 189.8 290.479 190.722 290.479 190.722L289.863 191.083L288.522 191.788L287.724 192.384L286.491 192.872L285.422 194.029L284.57 194.426L283.5 194.571L282.92 194.553L282.703 191.788L281.815 190.722L280.854 189.583L280.111 188.734L278.95 187.523L278.461 187.035L278.171 185.282L277.827 184.27L277.029 183.565L276.159 182.734L274.926 181.054L274.056 179.969L273.349 178.867C273.349 178.867 273.095 178 273.059 177.873C273.023 177.747 273.313 177.349 273.313 177.349L273.476 176.445L274.074 176.156L274.4 175.289L274.908 175.108L275.271 174.656L275.778 174.295L276.684 174.223L277.591 174.367C277.591 174.367 277.845 175.271 277.845 175.325C277.845 175.397 278.243 176.409 278.243 176.409V177.186L278.86 177.747L279.186 178.506V178.632L279.458 179.391L280.056 180.566L280.546 180.891L280.963 181.686L281.996 181.831L283.011 182.608L284.135 183.15L284.787 183.927L285.821 184.144L286.618 184.812L287.887 185.535L288.54 186.095L289.972 186.348L291.331 185.788L292.274 185.083L293.054 184.776L293.724 184.108H294.83L295.464 184.885L296.262 186.258L297.984 188.264L299.017 189.348L300.939 189.981L302.063 190.378L304.075 190.523L308.117 190.577L310.8 190.902L312.232 190.487L315.096 190.469L315.967 190.053L316.746 189.185L317.109 188.426L318.523 188.065L318.976 188.426L319.936 189.33L320.517 190.017C320.517 190.017 320.843 191.029 320.915 191.173C320.97 191.318 322.003 192.33 322.003 192.33L322.746 192.818L324.559 193.414L325.647 193.721L326.535 194.39L327.169 194.679L327.459 196.595V199.486L328.021 200.715L328.42 201.853L329.127 202.323L329.834 202.883L331.067 202.974L332.227 202.594L332.716 202.034L333.496 201.13L334.203 200.715L334.529 200.155H335.145L335.435 200.57L335.236 201.239L335.145 204.166L335.236 206.949L334.91 207.979L335.236 210.509L335.671 211.847L336.179 213.925L336.596 215.316L337.158 217.738L338.118 220.34L339.061 222.563L340.022 224.587L340.819 226.773L341.907 228.924L342.795 230.46L343.683 232.231L344.554 232.99L344.735 234.074L345.696 235.682L346.167 236.242L346.312 237.724L346.584 240.2V241.664C346.584 241.664 346.91 242.134 347.037 242.188C347.164 242.242 347.49 242.658 347.49 242.658L348.034 242.893L348.487 242.477L349.23 242.152L349.647 240.977L350.427 239.802L351.17 238.483L352.167 236.55L353.073 234.435L353.726 232.411L354.07 229.068L354.379 227.857L354.868 226.827L355.086 225.309V221.605L355.357 218.641L356.101 216.997L356.826 216.292L357.623 215.822L358.24 215.262L359.055 214.901L359.944 214.358L361.648 213.581L363.569 211.557L365.237 209.154L366.125 208.015L367.376 207.166L369.352 204.943L369.896 203.859L370.367 203.028L371.364 202.034L372.379 201.239L373.612 200.787L379.938 200.462L381.153 199.522L381.932 198.51L382.748 197.679L383.745 197.823L384.524 199.233L384.688 200.697L385.721 202.54L387.443 204.853L388.639 206.118L390.216 207.835L390.488 209.064L390.978 209.533L391.123 210.925V213.021L391.377 217.593C391.377 217.593 391.34 218.894 391.377 219.075C391.413 219.256 392.156 219.979 392.156 219.979L393.28 219.744L394.15 219.021L394.93 218.063L395.256 216.924L395.836 216.22L396.398 215.678L397.051 215.154L398.102 214.702L399.063 214.449V214.033L399.643 214.358L399.951 215.027C399.951 215.027 400.603 215.425 400.477 215.551C400.35 215.696 400.73 216.039 400.73 216.039V217.214L400.477 218.587V219.888V221.099L400.73 224.605L400.948 228.165L401.202 228.707L401.709 230.116L402.307 230.966L402.797 232.357C402.797 232.357 403.613 233.423 403.685 233.441C403.74 233.459 404.32 234.002 404.32 234.002L404.972 232.972L405.462 232.176L405.57 231.164L406.042 229.538L406.459 227.731V225.707L407.311 224.803L408.38 225.707L409.468 226.339L410.284 227.117L411.208 228.255L412.06 229.502L412.713 230.225L413.528 231.255L414.036 231.923L414.525 232.448L415.069 233.767L416.066 235.212L417.244 236.152L417.988 237.309C417.988 237.309 418.695 237.869 418.803 237.905C418.912 237.923 419.655 238.14 419.655 238.14L420.888 237.887L421.668 237.58L422.121 236.785L422.701 236.333L422.755 235.574L423.462 234.67L423.825 234.363L424.568 233.459L426.453 232.7L428.719 232.339L429.317 231.399L429.879 231.092L430.133 230.225L430.405 228.616L431.166 227.857L431.311 226.629L431.366 225.562L431.583 224.243L431.148 221.478L430.26 220.466L429.771 219.599L429.118 218.352L428.302 217.177L427.341 215.876L426.544 214.575L425.492 213.401L424.514 212.081L423.571 211.304L422.628 209.75L422.048 209.208L421.686 207.817L420.924 207.184V206.028L421.595 205.106L422.066 204.781L423.081 203.931L423.807 202.992L424.568 202.287L425.529 201.51L426.127 200.751L426.616 200.028L427.976 199.721L428.792 200.209L429.444 200.823L430.061 201.528L429.934 202.522L429.281 203.046L428.665 204.148L428.266 205.106L427.813 206.263L427.505 207.401L427.196 209.082L427.468 210.582L427.668 211.25L428.32 211.612L428.465 212.226L429.553 212.768L430.351 212.533L431.239 211.612L432.109 210.545L432.907 209.28L433.233 208.377C433.233 208.377 433.505 207.781 433.432 207.654C433.378 207.509 433.124 206.263 433.124 206.263L432.762 205.883L432.218 205.034V202.576L433.088 201.618L433.197 201.094L433.994 200.769L434.393 199.938L435.662 199.649L437.04 199.938H437.928L439.686 199.631L441.118 199.396L441.717 198.926L444.472 198.492L445.088 197.878L446.448 197.625L447.372 197.227L448.478 196.432L449.257 195.89L450.037 195.059L450.363 194.263L450.925 193.577L451.777 192.727L452.412 191.896L453.354 190.794L453.989 189.854L454.804 188.987L455.838 187.921L456.889 187.234L458.72 185.553L460.642 183.349L461.53 182.355L462.055 181.216L462.636 180.439L462.817 179.662L462.944 178.813L462.545 177.584L462.599 175.777L462.472 172.976L461.947 172.018L461.457 169.145L461.058 168.657L460.406 166.994L459.626 165.765C459.626 165.765 458.647 164.591 458.611 164.699C458.575 164.808 457.777 163.362 457.777 163.362L456.817 162.513L456.508 161.591L456.237 160.959L456.889 160.706L457.777 160.218L458.666 159.856L459.59 159.404L460.642 159.224L461.53 158.302L462.327 157.814L462.545 157.146L463.016 156.152L463.198 155.338L462.581 154.525L461.566 153.821L460.732 153.712L459.753 154.073L458.756 154.001L457.977 154.254L457.324 154.959L456.363 154.887C456.363 154.887 455.693 154.182 455.53 154.073C455.366 153.965 454.859 153.369 454.859 153.369L453.971 152.411L453.01 151.742L452.176 150.857V149.755L452.52 149.158L453.046 148.526L453.445 147.857H454.95L456.037 147.333L457.796 146.195L459.028 144.966L459.735 143.972L460.605 143.05L461.185 143.014L461.983 142.49L462.472 143.231L461.983 144.189L461.584 145.291L461.149 146.429L460.587 147.387L460.805 148.526L461.584 149.086L462.509 149.502L463.252 148.688L464.394 148.508L465.228 147.586L466.116 147.333L467.004 146.375L467.802 145.779L468.599 146.339L468.853 147.405L469.325 148.508L469.85 149.176L469.905 150.062L469.542 150.875L468.98 151.869C468.98 151.869 468.889 153.495 468.853 153.64C468.817 153.784 469.325 154.381 469.47 154.525C469.633 154.67 470.05 154.2 470.05 154.2L470.974 153.531L471.862 152.899L472.569 152.537L473.222 153.875L473.929 154.941L474.672 155.899L474.636 157.272L474.056 157.905L473.566 158.645L472.95 159.459L472.587 160.669V161.374L473.059 162.585L473.53 162.983L474.11 163.723L475.379 164.121L476.829 163.633L477.446 162.856L478.624 162.603L479.585 161.392L480.419 160.471L480.6 159.368L480.872 158.067L481.343 157.073L481.524 154.634L480.636 153.676L480.02 152.899L479.585 151.977L479.005 151.345L478.642 149.863L477.899 149.267L477.409 148.237L477.228 147.134L477.808 146.393L478.823 146.068L479.44 145.255H481.198L481.597 144.261L481.851 142.635L482.467 141.785L483.482 140.791L484.008 139.906L485.277 139.508L486.364 138.514L487.379 137.141L488.177 136.653L489.138 136.834L489.754 137.611L490.987 137.647L492.836 137.936L494.685 137.52L495.863 136.255L496.86 135.153L498.256 133.924L499.271 132.786L500.467 131.9L501.356 131.196L502.534 129.985L503.513 128.81L504.347 127.672L505.525 126.859L506.359 125.901L507.283 124.943L508.117 123.768L509.205 122.142V121.076L510.093 120.046V118.347L510.456 117.046L511.036 115.6L511.561 113.938L512.033 112.835V111.39L512.522 110.721L512.957 111.317L513.211 112.582L513.773 113.884L513.9 116.323L513.628 120.642L513.882 124.455L514.136 127.527L515.441 128.268L516.673 128.937L517.344 129.027L517.797 128.322L517.543 127.057L517.38 125.973L517.253 124.798L516.8 123.533L516.927 121.455L517.906 120.461L519.012 119.377L519.556 118.709V117.913L519.139 116.919L518.776 115.365L518.45 113.721L517.634 112.691L516.927 111.787L516.148 110.613L516.474 109.998L517.707 108.968V107.649L517.163 106.746L516.873 105.806L515.84 105.896L514.842 106.077L513.682 106.131L512.685 106.655L511.489 106.746L510.999 105.806L510.057 104.812L508.498 104.252L507.229 104.396L506.159 104.776L505.289 105.155L504.256 105.571L502.48 105.661L502.443 104.956L502.28 104.107L502.48 103.402L502.063 102.788L501.7 102.734L501.12 102.643L500.467 103.258L499.815 103.637L499.489 104.631L498.709 104.45L497.966 104.216L497.803 102.752L498.347 101.668L499.126 101.107L500.449 100.312L501.066 99.6436L502.878 99.2641L503.912 98.4148L505.471 97.8907L506.123 97.4751L507.156 96.7703L508.226 95.3969L509.459 94.2584L510.438 93.0838L511.67 92.6682L512.903 91.4936L513.809 90.4635L514.879 89.7949L516.528 89.6142L518.667 89.4696L520.843 89.5238C520.843 89.5238 523.181 89.7045 523.362 89.7045C523.526 89.7045 525.538 89.8853 525.538 89.8853L528.166 89.9756L530.269 89.6503L532.281 89.0901L533.713 88.5661L534.982 88.4757L535.798 89.1805L537.23 89.9756L538.336 90.3009L540.348 90.8611H542.16L543.357 90.8069L544.789 90.2828L545.605 89.4877L546.837 88.2227L547.943 87.3734L549.013 86.4698L550.408 85.9458L550.771 85.2771L552.04 84.7531L552.656 83.958L553.653 82.7291L555.176 81.5907L556.119 81.175L557.152 80.7594L558.965 80.8497L559.617 81.6449L560.07 82.4039L559.907 83.199L559.744 84.4639L560.161 85.3133C560.161 85.3133 561.14 85.4579 561.321 85.494C561.484 85.5482 562.88 84.8254 562.88 84.8254L563.623 84.4097L564.729 83.7953L565.635 83.3797L566.904 82.8195L567.847 82.2954L568.5 82.6749L567.92 83.2893L567.267 83.958L566.56 84.3736L565.164 84.8976L564.385 85.8012L563.388 86.5602L562.318 87.1746L561.376 87.9336L560.379 88.6926L558.656 89.3973L557.877 90.1021L556.771 90.2828L555.829 90.6984L554.886 91.1683L553.726 91.5478L552.983 91.9273L551.913 92.7224L550.88 93.5175L550.173 94.656L549.466 95.8848L548.85 96.9149L548.034 98.2341L547.49 100.638L547.78 102.481L548.106 104.234L548.523 105.083L549.013 106.727L549.792 107.902L550.046 108.751L549.919 109.926L549.665 112.004L548.922 113.088L548.759 114.263L548.106 115.673L547.617 116.901L547.417 118.076L547.834 118.69L548.741 117.425L549.52 116.251L550.463 115.221L551.496 114.082L552.819 112.854L553.762 112.004L555.194 111.01L556.463 109.836L557.369 108.751L558.403 107.523L559.635 105.734L560.379 104.649L561.031 103.655L562.391 103.041L562.971 102.752L564.784 102.517L565.654 101.378L566.016 99.8785L566.343 98.1798L566.959 97.3847L567.503 95.7403L567.92 94.5656L567.883 93.6621L567.43 92.632V91.7827L567.847 90.4635L568.5 89.1986L569.279 87.7348L571.056 86.7048L573.231 86.5602L577.273 86.1626L579.884 86.1084L581.37 86.4337L583.455 86.6505L585.974 86.4337L588.585 86.0361L589.509 85.5482L590.833 84.988L591.467 84.5001L592.663 83.958L593.389 83.6327C593.389 83.6327 594.712 82.8376 594.585 82.7833C594.458 82.7291 595.8 82.0244 595.8 82.0244L597.032 81.7352L597.739 81.4822L599.352 80.9582L601.528 80.5425L602.779 80.2895L604.102 79.91L605.824 79.7474L606.984 79.8378L608.688 80.4341L609.667 80.2534L609.957 79.2233L609.685 78.3559L608.634 77.4162L607.818 76.3501L606.513 75.3381L606.114 74.561L606.477 73.784L607.564 73.4768L609.649 72.9166L610.156 72.5551L610.61 71.8684L610.863 71.0914V70.0613L610.664 69.3204ZM227.795 84.3917L227.976 83.2532L228.447 82.8556L228.792 82.5665L229.299 82.4761L230.043 82.2593L230.641 82.5665L231.239 82.7472L231.855 83.0363L232.145 83.4339L232.58 83.7411L233.179 84.1387L233.614 84.5904L234.248 85.3494V85.8916L233.886 86.3433L233.396 86.9035L232.526 87.0481H231.293L230.659 86.8312L230.024 86.3072L229.318 85.8554C229.318 85.8554 228.701 85.7108 228.647 85.7108C228.592 85.7108 227.795 85.4217 227.795 85.4217V84.3917ZM256.255 141.406L255.929 142.345L255.294 142.707C255.294 142.707 254.352 142.725 254.08 142.797C253.808 142.869 252.267 143.195 252.267 143.195L249.965 143.339C249.965 143.339 248.188 143.628 247.989 143.628C247.789 143.628 246.267 143.321 245.922 143.303C245.596 143.285 244.581 142.833 244.436 142.761C244.291 142.689 243.058 142.237 243.058 142.237L241.1 141.008C241.1 141.008 240.52 140.647 240.393 140.647C240.266 140.647 238.907 140.285 238.907 140.285L237.058 139.924L235.553 140.213C235.553 140.213 234.085 140.376 234.012 140.376C233.922 140.376 232.599 140.394 232.599 140.394L231.656 141.243L231.058 142.183L230.206 142.743L229.227 142.689C229.227 142.689 227.922 142.761 227.831 142.761C227.722 142.761 226.399 142.761 226.399 142.761C226.399 142.761 225.076 142.598 225.003 142.598C224.913 142.598 223.771 142.653 223.771 142.653L222.919 143.357L222.139 143.773L221.722 144.243L220.598 144.315L220.435 143.484L220.707 143.159C220.707 143.159 221.16 142.779 221.16 142.635C221.16 142.49 221.142 139.635 221.142 139.635L220.562 139.002L220.199 138.207V137.105L220.526 136.689L221.178 135.84L222.266 134.629L223.317 133.238L224.387 132.081L225.13 130.87C225.13 130.87 225.456 130.653 225.565 130.653C225.674 130.653 225.837 130.057 225.837 130.057L226.018 129.099L226.562 128.485L227.469 127.419L227.831 126.931L228.302 126.407L229.499 126.027L230.351 126.172L231.058 126.425L231.42 126.822L232.236 127.726L232.889 128.503L233.015 129.135L233.36 129.985L233.505 130.672L233.849 131.304L234.429 131.774L234.611 132.442L234.955 132.75L235.698 133.057L236.369 133.039L236.877 132.551L237.475 132.009L238.2 131.882L239.143 130.925L239.65 129.985L240.085 129.461L240.647 128.828L241.082 128.503L241.263 127.744L241.535 127.202L241.88 126.804L242.967 126.316H244.2H244.816H245.451L246.085 126.479L245.995 126.949L245.741 127.328L245.378 127.744L244.816 127.925L244.11 128.34L243.312 128.521L243.113 129.135L243.457 129.696C243.457 129.696 243.711 130.22 243.747 130.292C243.783 130.364 244.508 130.653 244.508 130.653L245.27 130.78L246.013 131.033L246.484 131.593L247.735 132.298L248.714 132.786L250.092 133.997L251.143 134.991L251.759 135.478L252.321 135.966L253.445 136.581L254.333 137.105L254.841 137.701C254.841 137.701 255.203 138.406 255.276 138.406C255.348 138.406 255.693 139.49 255.693 139.49L256.2 140.34V141.406H256.255ZM288.54 130.437L287.615 130.925C287.615 130.925 286.274 131.214 286.129 131.214C285.984 131.214 285.15 131.214 285.15 131.214L284.824 130.834L283.809 130.816L282.993 130.364L282.485 129.804L281.524 129.732L280.727 129.913L280.074 130.093L279.259 130.726L278.987 131.665L278.697 132.208L278.588 132.695L278.443 133.256V133.671L278.533 134.304L279.132 134.792L280.038 134.918L281.017 135.081L281.234 135.496L281.778 136.292L282.105 137.213C282.105 137.213 282.884 138.081 282.902 138.153C282.92 138.225 283.247 138.569 283.247 138.569L284.189 139.4L285.15 140.159L285.966 140.484L286.455 140.864L286.673 141.641L286.582 142.508L285.948 142.888L285.585 143.484L285.096 144.026L285.204 144.713L285.331 145.436L285.694 145.887L286.165 146.249L286.709 146.701L286.745 147.333C286.745 147.333 287.035 148.435 287.035 148.508C287.035 148.58 287.47 149.574 287.47 149.574L287.833 151.038L288.177 152.411L288.322 153.875L288.377 154.543L287.905 155.266L287.361 155.754L286.401 156.007C286.401 156.007 285.494 156.459 285.367 156.459C285.241 156.459 283.192 156.459 283.192 156.459C283.192 156.459 281.488 156.513 281.416 156.459C281.361 156.405 280.183 156.007 280.074 155.971C279.966 155.917 278.552 155.357 278.461 155.357C278.37 155.357 277.192 154.742 277.192 154.742L275.343 154.128C275.343 154.128 274.382 153.676 274.31 153.586C274.255 153.495 273.367 152.79 273.367 152.79L272.751 151.833L272.606 149.989L272.497 148.688L272.805 147.857L273.548 147.46L274.364 147.08L275.633 147.152L276.249 146.863L277.174 145.905C277.174 145.905 277.935 145.074 278.026 145.002C278.117 144.93 278.606 144.08 278.66 144.044C278.715 143.99 278.207 142.598 278.207 142.598L277.446 142.237L276.322 141.749L273.802 140.882L272.95 140.321L272.008 139.472L270.159 137.792L269.869 136.707L269.452 135.551L268.908 134.629L268.545 133.942L267.965 133.183L267.621 131.575V130.129L268.056 129.19L268.727 128.575L269.125 128.033L269.597 127.238C269.597 127.238 270.068 126.985 270.195 126.931C270.322 126.877 270.847 126.642 270.92 126.642C270.974 126.642 271.79 126.642 271.79 126.642H272.37L273.222 126.804L273.675 127.021C273.675 127.021 274.255 127.112 274.328 127.148C274.419 127.166 275.379 127.365 275.379 127.365L276.485 127.274L277.21 126.75L277.99 126.063L278.733 125.124L279.349 124.817L280.056 124.202L280.908 123.75L281.724 123.606L283.065 123.786H284.062H284.806L285.458 124.148L285.948 124.437L286.8 125.395L287.071 126.298L287.525 127.075L288.032 127.473L288.612 127.943L288.957 128.702L289.047 130.003L288.54 130.437Z" fill="#20205B" fill-opacity="0.4"/>
<path d="M59.537 281.727L58.7576 280.39L57.7606 279.089L56.7092 278.059L54.5701 277.318L52.8661 276.794L51.6698 276.125L50.4915 275.601L49.4401 274.3L48.6062 273.306L47.5911 272.24L46.4128 271.752L45.2345 271.427L44.0381 271.101L42.461 271.427L41.7541 271.607L40.9202 271.68L39.8326 271.607L38.7812 271.192C38.7812 271.192 37.6029 270.306 37.476 270.234C37.3491 270.162 36.2071 269.782 36.2071 269.782L34.7569 268.788L33.7961 268.011L32.8716 267.234C32.8716 267.234 31.7296 266.945 31.4758 266.819C31.222 266.674 30.6057 266.114 30.6057 266.114L28.1947 265.789L26.4908 265.644L25.5119 265.933L24.9318 266.782L24.2792 267.776L23.6629 268.698L23.0828 270.252L22.684 270.776L21.5057 271.3L19.8924 271.156L19.6205 270.704L20.3637 269.746L21.5057 268.969L22.6115 267.903L23.1735 266.909L24.1342 265.915V264.885L23.6448 263.999L23.0284 263.295L22.2308 262.897L21.2338 262.933L20.2731 263.71L19.5661 264.271L18.8954 265.301L17.6627 266.186L16.4663 266.963L14.8892 266.638L13.9103 265.716L13.8741 264.578L14.9617 264.252L16.5932 263.656L17.7715 262.951L19.4755 262.391L20.7081 261.18L21.4151 260.548V259.174L20.7625 258.036L19.838 257.006L18.9135 256.753L18.0253 255.651L17.5358 254.06L16.6113 252.542L15.6324 251.061L14.2729 249.579L12.8227 248.242L11.3725 247.175L9.79541 246.218L7.72888 245.694L6.80438 246.055L5.04605 246.416L4.1759 246.868L3.43271 246.796L2.34506 246.2L1.54745 245.567L0.713593 243.652C0.713593 243.652 -0.428467 242.549 -0.591614 242.387C-0.754761 242.206 -1.57047 241.356 -1.57047 241.356L-2.44058 239.983L-3.23819 239.134L-4.01767 238.989L-4.48901 239.477L-6.21109 239.405L-7.0087 238.953L-8.69455 238.429L-8.89395 237.056L-8.40451 236.495L-7.75192 235.646L-7.17184 234.652L-7.08121 233.098L-6.26547 232.809V231.074L-6.71866 230.64L-7.78818 231.074L-8.04196 232.104L-8.62204 233.423L-9.32901 234.092L-10.1085 233.911L-10.7248 233.062L-11.5949 232.158L-12.5376 231.49L-13.6433 231.074H-15.4561L-16.725 231.725L-17.7945 232.249L-17.8308 233.658L-18.574 234.182L-18.7372 234.941L-19.3535 235.032C-19.3535 235.032 -19.4441 234.471 -19.5529 234.417C-19.6798 234.363 -19.8067 233.333 -19.8067 233.333L-20.6224 232.303L-21.6557 231.887L-22.9246 231.417L-24.0303 231.978L-25.2993 232.122L-25.7887 233.062L-26.7313 232.646L-26.9851 231.472L-27.6921 230.442L-28.5622 229.177L-29.7586 228.942C-29.7586 228.942 -30.6287 229.791 -30.7919 229.881C-30.955 229.972 -31.4989 230.496 -31.4989 230.496L-32.7315 231.761L-33.8373 232.99L-33.9279 236.712L-34.4174 237.236L-34.9612 237.146L-35.3237 236.586L-35.6863 235.176L-35.8494 231.923L-35.2693 230.55L-34.8162 229.936L-34.363 229.14L-34.0367 228.147L-34.3267 227.586L-35.1062 226.827C-35.1062 226.827 -36.1032 227.351 -36.212 227.388C-36.3389 227.442 -37.2815 227.713 -37.2815 227.713L-38.0972 228.616L-39.0036 229.701L-41.0157 230.55L-42.339 231.544L-43.5354 232.447L-44.9675 233.947L-45.8376 235.411L-46.6534 236.911L-48.1761 237.706L-48.9918 238.465L-50.2607 237.905L-51.0402 236.73L-52.4723 235.23L-53.3786 234.941L-54.0312 234.526L-54.9014 234.743L-57.2398 236.513L-58.9619 237.218L-60.5027 237.507L-62.1704 237.092L-63.1674 235.754L-64.3457 234.345L-65.0889 232.357L-65.3971 230.098V228.544L-65.1433 226.773L-64.9621 224.153L-64.0919 222.527L-64.1463 220.412L-65.1977 218.786L-66.5029 217.376L-68.3519 216.111L-69.7658 215.894L-70.8716 216.744L-71.8686 217.159L-72.2312 217.72L-73.7176 217.864L-75.1315 217.376L-77.2887 217.449L-77.7238 217.033L-77.5425 215.696L-76.5273 214.864L-76.7268 213.455L-76.8899 210.582L-76.5636 209.317L-75.911 207.853L-74.9684 206.678L-74.479 205.739L-73.8264 204.564V203.335L-74.1527 201.835L-74.6421 200.697L-76.4186 200.371L-78.5214 200.661L-81.4399 200.841L-82.9626 201.221L-84.159 201.98L-84.2859 204.058V206.841C-84.2859 206.841 -84.866 207.455 -84.9929 207.546C-85.1198 207.636 -85.446 208.305 -85.446 208.305L-86.4249 208.485L-87.4219 207.817H-88.2377L-88.8903 208.377L-90.1229 208.467L-90.9024 209.461L-91.7181 210.256H-93.1502L-94.0203 209.696L-94.9629 208.847L-96.395 207.383L-97.7908 206.01L-99.3135 204.221L-100.8 202.666L-100.891 201.347L-101.09 200.028L-101.289 197.57L-101.579 195.312L-101.743 193.288L-101.453 191.914L-100.999 190.83L-100.872 188.842L-100.836 187.378L-101.09 185.625L-101.706 184.632L-101.543 183.132L-100.184 182.517L-98.4978 181.758L-96.685 180.855L-95.4524 179.68L-94.7454 178.451L-93.7484 177.783L-92.9327 176.789L-89.3434 176.735L-87.005 176.969L-85.7723 177.494L-84.0865 178.813L-82.6544 178.957L-81.3311 178.722L-81.2042 176.12L-79.9353 175.217L-79.1921 174.512L-77.5425 174.747L-75.7298 175.036L-73.7539 174.801L-71.778 174.331L-70.7085 174.711L-69.8021 175.976L-68.8595 177.385H-67.1736L-66.2672 177.006L-65.6872 176.102L-65.0708 176.337L-64.7808 177.837L-64.5814 179.951L-63.8382 183.15L-62.7686 184.848L-61.3728 185.842L-60.6658 186.782L-60.2489 188.535L-58.8169 189.565L-57.5479 189.33L-56.6053 188.101L-56.4422 186.077L-56.5328 183.583L-57.1492 182.12L-57.8924 179.572L-58.4724 177.494L-59.2157 175.704L-60.1583 173.626L-60.1945 172.126L-59.6507 170.482L-58.128 169.542L-56.4059 168.512L-55.3727 167.518L-54.1763 166.109L-52.3997 165.169L-50.7502 163.181L-49.2275 161.573L-47.3785 160.489L-45.9464 159.784L-45.1669 159.224L-45.3301 157.344L-45.9102 157.055L-46.3996 156.116L-46.5627 154.742L-47.1066 153.333L-46.9796 151.724L-46.0733 151.58L-45.6201 151.995L-45.2576 152.935L-44.1518 152.989L-42.9554 152.05L-42.2484 151.291V150.351L-42.5384 148.887L-42.1215 148.182L-40.6351 147.514L-39.765 146.845L-39.8556 145.616L-40.1819 144.442L-39.4386 143.538L-38.3691 143.014L-37.499 142.833L-36.4295 143.357H-34.7799L-32.9309 143.032L-31.5714 142.472L-30.7556 141.532L-31.0094 140.737L-31.7164 139.743L-32.2964 138.514L-32.3327 137.719L-31.8433 136.454L-29.9036 134.665L-28.5803 134.051L-26.8582 133.671L-24.1754 133.201L-23.3596 132.677L-22.9971 131.503L-22.127 131.358L-21.8732 131.882L-21.7463 133.491L-21.3293 136.454L-20.423 137.249L-19.6072 137.304L-18.8278 136.743L-17.6314 136.219L-16.6344 135.225L-15.6555 134.665L-13.8427 133.997L-10.4348 133.057L-8.62204 132.768L-5.99356 132.153L-5.08719 131.358L-4.59775 131.033L-4.30774 130.364L-4.47086 129.605L-5.01468 128.611L-5.50412 126.822L-6.15671 125.828L-6.89993 125.883L-7.35312 126.172L-7.84256 126.316L-8.04196 127.112L-8.74893 127.726L-9.00272 128.286L-9.7822 128.521H-10.888L-11.2505 127.961L-11.5406 126.931L-11.6674 125.521L-12.0844 124.527L-12.7007 124.817L-12.9908 125.431L-13.5708 125.901L-14.3503 126.28L-15.166 126.461L-15.7461 125.901L-16.5619 125.576V124.582L-16.3987 123.877L-15.6917 123.208L-15.7824 122.305L-16.2356 121.13L-16.8156 119.811L-17.6314 119.522C-17.6314 119.522 -18.4471 119.233 -18.574 119.233C-18.7009 119.233 -20.0967 119.287 -20.0967 119.287L-21.0031 119.666L-22.1089 120.082L-22.6889 120.696L-24.121 121.112L-24.8642 121.636L-26.2238 121.925L-27.0939 122.016L-27.8009 122.341L-28.3447 122.287L-28.3084 121.528L-27.6921 121.112L-26.6951 120.317L-25.4987 119.377L-24.5016 118.853L-23.5046 118.184L-22.2357 117.1L-21.1662 116.106L-20.0061 115.167L-18.9366 115.076L-18.2296 115.492L-17.287 115.727L-16.7431 116.395L-15.583 116.54V115.835L-14.876 115.781L-13.9696 115.835L-13.879 116.775L-14.0059 117.57L-14.4591 118.275L-13.9696 119.54L-13.4258 120.1L-12.3925 120.046L-11.5768 119.757L-10.5435 118.817L-9.72781 117.733L-7.95132 117.172L-5.81229 116.233L-4.70651 115.618L-3.34695 114.859L-2.24118 114.57L-0.627838 113.197L-0.265289 112.582L0.514191 112.257L1.25742 112.076L2.07315 112.601L2.36319 114.155L1.94623 114.57L1.36618 115.365L0.622955 115.889L-0.156555 116.739L-0.772888 117.733L-1.35294 118.817L-1.64297 120.136L-2.1868 121.04L-2.27744 121.835L-3.27444 122.25V123.335L-2.62186 124.238H-1.55234L0.260406 123.768L1.32993 124.329L2.81635 124.003L3.55957 123.244L4.71973 123.533L5.66235 124.437L6.27869 125.232L7.09442 124.943L8.25458 124.238L9.90417 124.148L11.3 124.383L11.7169 124.997L12.5327 125.051L12.6958 124.112V122.973L12.2064 122.07L11.6263 120.461L10.8468 118.528L10.2305 117.534L9.36035 116.775L8.03708 116.45L7.29382 117.353L6.1337 117.498L5.1004 117.082L4.06717 116.468L3.28766 115.564L3.08826 114.805L3.79526 113.775L4.44781 112.51L5.35419 111.101L6.16992 109.312L6.78625 108.173L6.58688 106.944L5.39044 106.276L4.06717 105.752H3.07016L2.20001 105.137L1.65619 103.493L0.622955 101.993L-1.15356 100.384L-2.47684 99.6797H-3.41946L-4.97842 99.499L-6.17484 99.0834L-7.04495 98.4148L-8.27762 96.7161L-9.34714 94.6921L-11.4137 92.1983L-13.589 89.325L-15.2386 87.8251L-15.8911 86.3614L-16.9969 85.5121L-18.3202 85.6928L-18.7372 86.3614L-19.6435 87.3914L-20.3867 88.6564L-21.3838 89.8852L-22.5801 90.7346L-23.3959 91.4936L-25.4987 91.4032L-26.3688 90.9876L-27.402 90.2286L-28.5985 89.1985L-29.0154 88.3311L-28.9791 87.4095L-28.0728 86.7409L-28.1996 85.4217L-29.0698 84.1929L-31.3357 83.7772L-33.6016 83.6327L-35.2875 83.3074L-37.0096 81.8979L-39.2755 80.7594L-40.7076 80.1992H-42.3572L-44.6593 80.1088L-46.9615 80.3437L-48.2848 80.5787L-50.0613 80.8136L-50.5145 82.3677L-51.004 84.5904L-51.1671 85.4398V86.2891L-50.7502 87.1927L-51.3665 88.8371L-51.9466 89.4515L-52.9255 89.5419L-53.5055 89.8672L-52.7261 90.6623L-51.8197 91.4213L-50.4964 92.7947L-48.883 94.4391L-48.303 95.2885L-48.2123 97.0775L-48.303 98.487C-48.303 98.487 -49.3362 99.1918 -49.4631 99.246C-49.59 99.3002 -50.4964 100.276 -50.4964 100.276L-51.5659 100.8H-52.0191L-52.7623 100.619L-53.2518 99.8604L-53.9587 99.246L-54.6113 99.1557L-55.5902 99.1015L-56.0796 99.3906L-55.6264 101.18L-54.7201 102.174L-54.2669 103.439L-53.6505 105.372L-53.2336 106.836L-52.7804 108.209L-52.9798 109.763L-53.2699 110.848L-54.702 111.227L-56.4241 111.317L-57.5842 110.992L-58.4906 110.287L-58.6537 109.492L-58.4906 108.824L-58.1643 107.504L-58.3637 105.987L-58.9075 104.956L-59.3607 105.011L-59.3969 106.005L-59.977 106.998L-60.4302 107.468H-61.0828L-61.2097 105.86L-61.5722 104.306L-62.388 102.047L-62.5511 100.963L-63.0043 100.493H-64.0376L-65.7597 100.403L-67.4818 100.222L-69.2583 99.9869L-71.5967 99.5713L-73.8264 98.7762L-76.2554 98.1076L-78.7208 97.1679L-80.3704 96.7884L-81.603 95.8487C-81.603 95.8487 -82.1831 95.3246 -82.1831 95.18C-82.1831 95.0355 -83.3433 95.0355 -83.3433 95.0355H-84.5034H-86.0624L-86.6062 95.7945L-88.0927 95.5595L-88.5096 94.5656C-88.5096 94.5656 -88.8359 93.2464 -88.8359 93.0115C-88.8359 92.7766 -90.0323 92.108 -90.0323 92.108L-91.6819 91.5478L-92.9145 91.0237L-93.8572 89.7587L-93.694 86.7409L-93.2408 85.5121L-92.0082 84.3736L-91.1381 83.7592L-89.9054 82.7653L-88.8721 81.5906L-87.2225 80.1811L-85.2466 78.627L-83.3614 77.2175L-82.2012 76.3681L-79.6815 75.7537L-77.8688 75.9344L-76.9987 76.1693L-76.2554 76.4043L-75.6391 75.7356L-75.0953 74.9405L-74.8052 74.3803L-74.6421 73.0069L-74.7327 71.3986L-74.1527 71.2179L-73.8264 71.7419L-73.627 73.0611L-72.8112 73.9647L-71.9411 74.29L-71.2341 74.9044L-71.4335 75.8441L-72.0499 76.4585L-72.6662 76.603L-72.7931 77.362L-72.0136 77.7415L-71.1073 77.9222L-70.4547 77.5427L-69.0226 77.2175L-67.9893 76.8018L-66.8836 76.1874L-65.9047 75.8079L-64.1282 75.3923L-62.7686 75.4826L-62.3155 76.332L-61.826 77.091L-61.3728 78.6451L-59.977 79.0246L-58.7806 78.6451L-57.6748 78.121L-57.0585 77.362L-57.0222 76.5669L-57.5661 75.3019L-58.3818 74.8863L-59.7414 74.2719L-60.9378 73.9827L-62.4242 72.9527L-63.2943 72.5732L-64.2007 72.013C-64.2007 72.013 -64.7445 71.254 -64.8533 71.1095C-64.9802 70.9649 -65.4334 70.4408 -65.4334 70.4408H-66.3397L-67.083 70.6758L-67.9893 70.9649L-68.9682 70.7842L-69.6752 70.6396L-70.0921 70.2601H-70.9622L-71.4154 70.4408L-71.8686 69.8264L-72.2856 69.2662L-71.4698 68.5072L-70.4003 68.2723L-69.3308 68.5072L-68.3519 68.6879L-66.4666 68.8686L-65.1071 68.7783L-63.675 68.5976L-62.6055 67.8928L-61.1734 67.7482L-60.0677 67.3688L-59.3244 67.0796L-58.7806 66.3206L-58.8169 64.4774L-59.1794 63.7726L-59.8864 63.104L-60.5934 62.6341L-61.6266 62.1101L-61.8804 61.6945L-61.5179 60.8993L-60.7021 60.2307L-59.3788 59.6705L-58.273 59.5801H-56.5509L-55.4814 60.05L-53.9225 59.8693L-53.7956 58.6043L-53.5055 57.9357L-53.0161 57.7911H-52.146V58.6947L-51.6928 59.9235H-50.4964L-49.9525 59.544L-49.2093 59.4898L-48.4661 60.05L-47.1066 61.1343L-46.8528 61.6583V62.6522L-47.2697 63.357L-47.4691 63.9172L-48.3392 64.4413L-48.7561 65.3448L-50.1519 65.6339L-49.9888 66.7182H-47.4328L-45.747 67.0073L-45.04 66.8628L-44.1337 66.1038L-43.3542 65.2002L-42.6472 64.2063L-42.0671 63.2666L-40.4175 63.5016L-39.4749 64.2967L-38.2785 64.4774L-37.9884 65.2364L-38.7317 65.905L-39.5112 66.2303L-40.5082 66.7001L-41.3783 67.17L-42.194 67.8747L-42.5203 68.5434L-43.463 69.4469L-44.2062 71.0552L-45.7289 70.8745L-47.3785 70.5854L-48.9374 70.1155L-50.4964 70.0252L-50.9858 71.0552L-51.9828 71.1456L-52.2366 73.025L-52.0735 74.7779L-51.6203 76.2778L-50.2607 76.3681L-49.9344 75.3381H-48.3755L-47.3966 75.1031L-47.0703 74.9224H-46.6171L-46.037 75.2116L-43.5173 75.1574L-39.6562 75.3923L-38.2604 76.0971L-37.0277 77.0367L-34.7618 77.7054L-33.6923 78.7354L-32.8765 79.5848L-31.0275 79.2956L-30.8644 78.6812L-29.3054 78.7354L-28.6528 79.7655L-28.1996 80.669L-26.4232 81.0485L-24.0303 81.428L-22.6708 81.3738L-22.0907 80.3437L-21.1481 79.4402L-20.1692 79.386L-18.9728 79.9462L-17.867 80.8497L-16.5437 80.7955L-16.2899 80.2715L-16.4531 79.2776L-16.87 76.4404L-18.2296 75.3019L-19.3353 74.5429L-20.6042 74.0731L-22.2176 72.8985L-22.8702 72.2299L-23.414 71.3805L-23.2146 70.3866L-22.3445 70.0071L-21.1118 70.0975L-19.5891 70.8565L-17.6495 71.9407L-16.0362 72.8804L-14.0603 73.3503L-12.5013 72.8804L-10.9786 71.8865L-9.7822 70.8926L-8.38638 69.3385V68.1639L-9.61905 67.7482L-11.2686 67.3688L-12.5919 67.0796L-14.2778 66.2845L-15.1479 65.3448L-16.4168 64.4413L-17.3957 63.7365L-18.2658 62.7968L-19.5348 62.6522L-20.6405 63.2124L-21.8369 63.5377L-23.269 62.7787L-23.6316 61.6402L-24.3748 59.3272L-24.5742 57.8092L-25.1543 56.49L-26.5501 56.1105L-30.2481 55.207L-33.4566 54.7913L-36.5927 53.5625L-39.6018 52.2975L-41.7408 51.4482L-44.46 50.129L-46.2364 49.1351L-48.6655 47.9605L-49.7713 47.2919C-49.7713 47.2919 -50.587 46.9666 -50.9314 46.8762C-51.2577 46.7859 -52.0372 46.8762 -52.0372 46.8762C-52.0372 46.8762 -53.1974 47.2919 -53.433 47.3461C-53.6868 47.4003 -54.9557 47.581 -54.9557 47.581L-56.2246 47.6352L-58.0736 47.8159H-59.9589L-61.5722 47.581L-63.0587 47.5268L-63.8744 47.6171L-64.817 47.7978H-66.9561L-68.4425 48.2135L-69.0226 48.7737V49.8037L-68.6963 50.7434L-68.8232 51.918L-69.8202 52.3337L-70.6359 53.1288L-71.5423 52.8397L-72.6481 52.7493L-72.8475 52.0807L-72.5212 51.0506L-72.3218 49.2977L-72.6118 47.5087L-73.1919 46.6052L-74.0983 46.4244L-75.4578 46.4787L-77.6331 46.8943L-78.5395 47.4545L-79.5728 47.834L-80.8417 48.5388L-82.6182 49.1532L-83.3976 49.5688L-83.5608 50.5627L-83.307 51.9722L-82.8538 53.2011L-82.4006 55.0805L-81.3674 55.8394L-80.2979 56.6888L-78.7389 57.4478L-72.5212 57.9176L-70.2915 58.767L-70.1646 60.2307L-70.781 61.1343L-70.9804 61.9294L-72.3762 61.9836L-73.2825 62.1643L-74.2614 62.9233L-74.6784 64.4413L-75.7479 65.3448L-76.3642 65.6701L-76.9443 65.2544V64.5497L-76.618 63.61V62.1101L-77.325 61.2608L-78.1407 60.1765L-79.3371 59.9958H-80.7329L-81.603 61.0258L-82.31 61.7306L-83.1801 61.5499L-83.3795 61.08L-84.3584 59.6705L-85.3917 57.9176L-86.9506 56.7791L-89.0534 54.4299L-90.8661 52.677L-92.3888 52.2072L-93.6578 52.3517L-94.5279 53.4902V54.1046L-94.2741 54.954L-93.7847 55.9479L-93.4221 56.9779L-92.7151 58.7308L-92.4613 60.1042L-92.1351 61.9474L-92.0444 63.881L-92.6608 64.4413L-93.6396 64.5858L-94.2922 65.1099L-95.5249 65.5255L-96.2681 65.7604L-96.9207 66.0496C-96.9207 66.0496 -97.1745 65.7604 -97.537 65.3448C-97.8996 64.9292 -98.1171 64.9292 -98.1171 64.9292L-98.3709 62.9956V61.0078V59.7789L-98.3346 58.2248L-99.3135 57.9357H-100.184L-100.963 58.5501H-102.286L-103.229 57.9899H-103.972L-104.226 58.6947L-105.259 58.785L-105.35 59.4898L-104.371 59.8151L-103.338 60.8993L-102.431 61.7487V63.3931L-103.247 64.4232L-104.027 64.8027L-105.35 65.3267L-110.081 65.0376C-110.081 65.0376 -112.673 65.0376 -112.927 65.0376C-113.181 65.0376 -114.541 64.7485 -114.541 64.7485H-116.39L-117.749 65.1279L-120.885 64.6581L-121.918 64.0979L-121.955 63.104L-121.501 62.3089L-120.269 61.839L-119.109 61.315L-114.051 60.9897L-112.275 60.5741L-110.879 59.6344L-110.226 58.4959L-110.426 57.1767L-110.879 56.5081L-112.075 55.9479L-114.142 55.6226L-116.571 55.3877L-117.64 54.6829L-118.547 53.8878L-119.58 52.2433L-120.359 51.2494L-120.033 50.3097L-119.489 49.2797L-118.782 48.864L-118.819 48.0147L-119.308 47.2557L-120.631 47.0208L-121.574 47.2015L-122.644 47.581L-124.039 47.8159H-125.163L-126.16 47.7617L-126.414 47.2015L-125.761 47.0569L-124.565 46.6413L-123.242 45.8823L-122.589 44.7438L-122.263 42.7199L-121.846 40.8766V39.3768L-122.662 38.7623L-123.659 38.8166L-124.656 39.2322L-125.562 40.1357L-127.284 39.8466L-128.064 39.0515L-129.169 37.7323C-129.169 37.7323 -129.876 37.2082 -129.985 37.2082C-130.094 37.2082 -131.055 37.2082 -131.055 37.2082L-131.762 37.8226L-132.541 38.1118L-133.121 39.0153L-133.864 39.5755L-134.97 40.3707L-135.586 40.9851L-137.236 41.1296L-138.432 40.2261L-139.593 39.2322L-140.408 38.7623L-143.2 38.3467L-144.886 38.0576L-146.662 37.913L-147.768 37.4432L-148.674 36.2685L-149.563 35.365L-149.943 35.0759H-150.922H-153.805L-154.91 35.5457L-157.212 35.871L-158.373 36.2866L-160.022 36.6661L-161.871 37.1902L-162.524 37.7504L-163.068 39.1238H-164.717L-165.334 39.684L-166.113 40.2984L-166.077 41.3284L-161.182 41.6176L-156.578 41.3284L-155.672 40.6237L-153.333 40.2984L-152.01 40.8224L-151.684 42.5753L-150.614 43.5692L-149.581 44.4728L-147.949 44.0029L-146.3 42.8645H-144.578L-143.671 45.2679L-141.786 46.4064L-138.65 46.316L-136.257 45.7558L-132.052 45.7016L-129.133 46.0811L-127.937 46.5509L-127.357 47.1654L-127.556 47.7798L-128.136 48.6291L-127.937 49.9483L-127.484 51.1771L-127.067 53.1649L-126.74 54.4841L-127.61 54.3938L-128.553 52.6951L-129.369 50.8157L-130.565 49.117C-130.565 49.117 -132.378 49.117 -132.577 49.117C-132.777 49.117 -135.043 49.117 -135.043 49.117C-135.043 49.117 -136.438 49.4062 -136.855 49.5327C-137.272 49.6772 -138.831 50.0929 -138.831 50.0929L-141.097 49.9483L-142.529 49.5688L-143.273 48.7195L-144.469 48.0147L-145.865 47.3461C-145.865 47.3461 -147.75 46.9304 -148.094 46.9304C-148.439 46.9304 -149.255 46.2618 -149.255 46.2618L-150.324 45.557L-151.484 44.6535L-152.101 43.9849L-153.369 43.6957H-154.856L-155.509 44.6896H-156.215H-156.796L-157.793 45.1595L-158.771 44.9788L-160.167 44.6896L-162.506 44.8703L-163.702 45.1956H-165.587L-167.019 44.8703H-168.379L-169.449 45.0511L-170.482 45.5751L-171.261 47.3641L-171.678 49.0086L-172.095 50.0929L-172.512 50.888L-174.579 51.4482L-174.542 52.1168L-173.31 52.7312L-171.08 53.1469L-169.847 53.942L-168.85 54.6106L-167.654 55.5503L-165.587 55.225L-163.648 55.0443L-161.382 54.719L-159.569 54.195L-158.699 53.4902L-158.21 52.2614L-157.72 51.7915H-156.941L-156.197 52.5867L-155.545 53.7251L-154.802 54.8998L-153.641 56.3635L-152.409 57.6285L-151.212 58.532L-149.889 59.3272L-149.798 60.8813L-150.705 61.2608L-151.158 61.4957L-152.173 61.4415L-152.88 61.1162L-154.403 60.5921L-156.288 59.9777L-157.974 59.2729L-159.17 58.6043L-160.784 58.0803L-162.633 57.6104L-164.735 57.755L-166.004 58.0441L-168.379 58.261L-170.663 57.5381L-171.823 56.743C-171.823 56.743 -172.929 56.8334 -173.056 56.8334C-173.183 56.8334 -173.708 57.7369 -173.708 57.7369L-174.615 57.7911L-175.104 58.3513L-175.811 58.6405L-176.518 58.4597L-176.935 57.9899L-177.515 57.2851L-178.059 56.9599L-178.385 56.4358H-179.255L-179.872 56.9599L-180.416 57.3755L-181.159 57.4658L-181.449 57.2851L-182.065 57.3393L-182.972 57.0141L-184.041 56.7791H-184.984H-186.38L-187.576 57.0141L-188.029 57.6285L-188.899 57.8634L-189.479 58.0441L-190.059 58.4597H-190.803H-192.072H-193.141L-194.41 58.1345L-195.479 57.9538L-196.839 57.7188L-198.851 57.773L-199.468 58.3332L-199.83 59.1826L-200.446 59.6524L-201.353 60.1765L-201.842 60.7909L-202.459 61.4957L-203.274 61.6764L-203.854 61.3873L-204.67 60.5379L-205.45 59.7789L-206.447 58.9296L-207.19 58.785L-208.006 58.3694L-208.785 58.0441L-210.145 57.8634L-211.341 58.0441L-212.737 58.3332L-214.676 58.4778L-216.072 58.2429L-217.885 57.8634L-220.187 57.5743L-223.323 57.4839L-225.426 57.3393L-228.109 56.8153L-229.994 56.3454L-231.39 56.1647L-233.166 56.3093L-235.396 56.1647L-237.281 56.4539L-239.058 56.5984L-241.197 56.5442L-243.825 56.6888L-244.84 56.3635L-244.985 55.5865C-244.985 55.5865 -245.729 55.5684 -245.91 55.5142C-246.091 55.46 -246.2 54.7913 -246.2 54.7913L-246.816 54.5022C-246.816 54.5022 -247.124 54.1408 -247.306 54.0504C-247.487 53.9601 -247.886 53.436 -247.886 53.436H-248.738L-249.3 53.9601L-249.771 54.448L-251.656 54.0866L-252.472 53.5264L-253.705 52.9119L-254.375 52.3879L-255.409 52.4782L-255.753 53.0204L-256.315 53.5625L-257.24 54.5022L-257.874 55.1889L-258.817 55.6587H-260.158H-261.173L-261.79 56.0382L-262.515 56.0563C-262.515 56.0563 -262.968 55.8937 -262.968 55.731C-262.968 55.5684 -263.892 55.731 -263.892 55.731L-264.853 56.2189L-266.738 56.7611L-267.862 57.3213L-269.53 57.8092L-270.019 58.5862L-270.745 59.2187L-271.615 60.0681L-272.322 60.6644L-273.446 60.9716L-274.968 61.0258L-276.781 60.809L-277.397 61.1162L-277.615 61.8752L-277.343 63.0498C-277.343 63.0498 -276.328 64.0075 -276.255 64.0798C-276.165 64.1521 -273.699 64.369 -273.699 64.369L-271.27 65.146L-269.566 66.1399L-267.935 66.5375L-266.575 67.3868L-265.669 68.6337L-265.27 69.7903L-265.705 70.1517C-265.705 70.1517 -266.34 70.5131 -266.412 70.5131C-266.466 70.5131 -267.337 70.6577 -267.337 70.6577L-268.225 70.242C-268.225 70.242 -269.167 69.8806 -269.566 69.7541C-269.965 69.6096 -270.473 69.465 -270.636 69.3566C-270.799 69.2301 -271.723 68.6337 -271.723 68.6337L-272.394 67.7121H-273.482H-274.497L-275.204 68.2542L-277.089 68.7964H-278.358C-278.358 68.7964 -279.554 69.212 -279.609 69.212C-279.663 69.212 -281.893 69.9168 -281.893 69.9168L-282.237 70.7119L-281.839 71.8865L-281.041 72.7358L-280.37 73.4406L-279.573 74.2719L-277.089 75.0489L-274.316 75.5369L-273.101 75.6814L-271.76 75.8079L-270.636 75.4465L-269.059 75.1574L-268.297 74.4707L-267.047 73.8563L-265.959 73.6033H-264.926L-264.418 74.7417L-264.998 75.5369L-265.596 76.2958L-266.213 76.8199L-266.92 76.9645H-267.88L-268.787 77.1452L-269.53 77.5066L-272.177 77.6512L-273.391 78.1933L-274.569 79.0607C-274.569 79.0607 -275.766 80.0004 -275.929 80.0727C-276.092 80.145 -277.198 80.7594 -277.198 80.7594L-277.452 81.1569L-277.56 82.458L-277.397 83.2532L-276.455 84.5001L-275.548 85.5663L-274.388 86.8132L-273.736 87.8251L-273.355 89.1805L-271.742 89.2528L-271.125 88.801L-270.038 88.1685L-269.258 87.5722L-268.696 87.0481L-268.569 86.3795L-267.772 86.1626L-266.974 86.2349L-266.793 87.3011L-267.047 88.4034L-267.137 89.2166L-266.648 90.59L-265.85 91.4393L-265.107 91.4755L-264.436 91.0779L-263.784 90.2647L-263.475 89.813L-262.551 89.8491L-261.989 90.3732L-261.064 91.2586L-260.013 92.3971L-259.27 92.3248L-259.052 91.6562L-258.182 91.4393L-257.657 91.1502L-256.95 91.1141L-256.297 91.5658L-255.898 92.1622L-256.152 92.7585L-256.46 93.644L-257.131 93.7163L-257.838 94.2765L-259.143 94.9451L-259.723 95.5053L-261.046 95.9932L-261.753 96.4089L-263.856 97.0775L-265.651 98.1256L-266.358 98.9388L-267.717 99.3002L-268.152 99.9327L-269.693 100.222L-270.092 100.818L-271.089 101.198L-272.412 101.306L-272.575 101.722L-273.065 102.354L-273.373 102.499V103.312C-273.373 103.312 -273.029 103.637 -272.902 103.764C-272.775 103.908 -272.322 104.179 -272.322 104.179H-271.433L-270.817 103.963L-268.932 103.511L-267.844 102.951L-265.832 102.065L-265.053 101.776L-263.131 101.324L-262.551 100.8L-261.844 100.945H-261.046L-259.342 100.276L-258.345 99.6074L-257.167 99.246L-256.696 98.7581L-255.427 98.1618L-254.412 97.204L-253.179 96.4631L-251.548 95.8306L-250.587 95.8667L-249.844 96.9329L-248.883 97.8184L-247.868 98.2702L-246.563 98.3063L-245.149 97.71L-243.843 96.6438L-242.828 95.3427L-242.049 94.5656L-241.958 92.9392L-242.23 92.5778L-243.426 92.5417L-244.822 92.5778H-245.402V92.0176L-244.913 91.5297L-244.55 91.0779L-243.97 90.2286L-243.499 88.6022L-242.919 86.8674L-242.212 86.0542L-241.741 85.3856L-240.871 85.1326H-239.874L-239.565 85.6205L-239.91 86.5421L-240.037 87.1384L-240.399 87.7709L-241.052 88.0962V88.5841L-240.653 89.5057L-239.946 90.4274L-239.112 90.2467L-238.623 89.6503L-237.318 89.0178L-236.302 88.3131L-235.124 87.7529L-233.366 86.9758L-232.749 86.6144L-231.444 85.9096L-230.465 84.8434L-229.414 84.0664H-228.181L-226.767 85.0241L-225.843 85.6928L-224.955 86.0542L-224.066 85.9458L-222.562 85.4217L-220.93 85.9458L-218.592 86.4337L-214.586 87.1746L-211.595 88.3853L-209.111 89.3431L-206.845 89.813L-204.217 90.6081L-203.147 91.3128L-201.987 92.7766L-201.117 93.5717L-200.664 94.8909L-200.011 97.0594L-199.304 97.7642L-197.165 98.234L-194.736 98.9027L-193.83 99.5171L-193.467 100.457L-193.63 103.475V106.312L-192.887 107.215L-192.072 108.39L-190.875 108.715L-189.606 109.944L-188.283 110.649L-187.286 110.595L-186.923 109.745L-186.96 108.751V107.757L-187.667 106.854L-188.12 106.095L-188.736 105.191L-188.99 104.288L-189.443 102.68L-188.899 102.155L-188.12 101.83L-187.467 102.824L-186.688 104.197V104.758L-186.035 105.932L-185.546 106.872L-184.893 107.776L-183.697 108.245L-182.663 108.769L-181.848 109.799L-181.068 110.974L-180.706 111.878L-180.742 113.251L-181.068 114.046L-180.778 115.365L-180.162 116.63L-179.219 117.1L-177.497 117.425L-176.264 118.13L-175.032 119.449L-173.962 120.624L-172.53 121.329L-171.714 122.232L-170.971 123.262L-170.717 126.136L-170.355 127.075L-169.992 129.099L-169.956 131.647L-169.829 134.43L-170.119 137.539L-170.609 139.382L-170.971 141.93L-170.645 143.195L-170.228 145.128L-169.684 146.917L-168.868 148.616L-168.053 149.935L-167.146 151.074L-166.439 152.303L-165.787 153.062L-165.134 154.525L-164.065 155.61L-163.611 156.459L-163.195 157.868L-162.415 158.573L-161.255 159.947L-160.059 161.591L-159.188 162.495L-157.212 162.874L-155.527 163.254L-154.457 164.862L-153.424 166.362L-152.318 168.35L-151.412 170.428L-150.469 172.831L-149.4 174.946L-148.656 176.735L-147.496 177.819L-146.626 178.433L-145.466 179.102L-145.049 180.602L-145.538 181.397L-146.245 182.102L-146.535 183.276L-146.989 183.945V184.939L-145.756 185.083L-144.324 184.903L-143.581 184.722L-142.874 185.336L-141.641 186.33L-140.608 187.74L-139.411 189.005L-138.922 190.613L-138.632 192.637L-137.2 192.926L-136.003 193.45L-134.68 194.48L-133.81 195.745L-132.65 196.504L-131.671 196.324L-130.928 195.944L-130.765 195.33L-130.801 193.92L-131.743 193.071L-132.686 191.806L-133.502 191.137L-134.444 190.577L-135.387 189.673L-135.967 188.3L-136.293 186.8L-136.783 185.246L-137.272 184.162L-138.704 182.752L-139.701 181.668L-140.481 180.764L-141.133 179.536L-141.496 178.451L-142.276 177.512L-143.472 176.337L-143.889 175.199L-145.212 174.259L-145.702 173.319V172.235L-145.085 171.566L-144.342 171.006L-143.309 170.446L-142.566 171.349L-142.022 173.138L-141.732 174.132L-141.115 175.885L-140.3 176.969L-139.103 178.144L-138.197 179.319L-137.164 180.493L-135.55 181.993L-134.227 183.258L-133.031 184.867L-131.961 186.276L-131.308 187.776L-130.728 188.716L-129.749 189.655L-129.387 190.884L-128.281 192.583L-126.668 193.053L-125.598 194.426L-124.202 195.655L-123.097 197.028L-122.607 198.058L-122.118 199.902V201.167V202.666L-121.792 203.895L-121.048 205.504L-120.305 206.642L-119.399 207.202L-118.293 207.961L-117.26 208.341L-115.828 209.19L-114.468 210.094L-112.855 210.997L-111.695 211.792L-110.299 212.696L-109.066 214.485L-108.123 215.334L-106.764 215.569L-103.628 216.093H-102.141L-101.235 217.358L-100.129 218.497L-98.9691 219.256H-98.0627L-97.1926 218.461L-96.54 217.521L-95.7968 216.581L-94.9267 216.4L-93.9478 216.111L-92.9145 216.437L-92.0082 217.105L-91.1018 218.189L-90.2861 219.274L-89.2165 220.503L-88.1833 221.496L-86.9506 222.255L-86.008 223.159L-84.159 223.629L-82.7632 223.918L-81.603 224.442L-80.7873 225.002L-79.754 224.912L-78.4307 224.442L-77.0349 225.147L-76.1286 225.852L-74.8596 226.556L-73.4638 227.586L-72.9744 228.291L-72.6481 229.791L-72.3943 230.55L-72.6481 231.49L-72.3218 232.809L-71.7055 234.074L-71.0529 234.743L-69.9834 235.212L-69.1676 235.917L-68.0618 236.387L-66.9923 237.616L-65.9228 238.465L-65.1796 239.784L-64.4001 239.839L-63.3668 240.218L-62.0435 240.977L-61.3909 241.772L-60.2852 242.947L-58.8531 242.658L-58.0374 241.862L-56.8047 240.778L-56.5509 239.224L-55.7352 238.935L-54.6657 238.465L-53.5055 239.134L-52.8529 240.037L-52.6898 240.977L-51.8197 242.387L-51.4027 243.29L-50.6233 245.043L-49.8075 247.157L-49.5538 248.567V249.796L-49.9707 250.41L-50.1338 251.783L-50.3332 254.006L-50.6958 255.271L-51.149 256.536L-51.9285 257.241L-52.7442 258L-53.3242 258.994L-53.8681 259.897L-54.8651 260.692L-55.8984 261.596L-56.5509 262.301L-57.6205 262.915L-58.5993 263.999L-59.4695 265.228L-59.5057 266.313L-58.8531 267.722L-58.4362 269.276L-57.6567 270.921L-57.693 273.324L-58.5993 274.173L-59.2519 275.438L-60.122 276.667L-60.4846 277.932L-60.2852 279.251L-59.0888 281.04L-57.0222 281.98L-55.4633 283.625L-54.5932 285.938L-53.3968 289.01L-52.2366 291.467L-51.4571 293.817L-50.2607 297.015L-49.2275 298.569L-47.7954 300.973L-47.2153 302.003L-46.7621 303.792L-45.9464 306.575L-45.1669 307.713L-43.9705 308.743L-42.5384 309.882L-40.7257 310.352L-39.1667 311.056L-37.9341 312.52L-36.0851 313.839L-34.4355 314.454L-33.5291 315.538L-32.7859 316.857L-31.807 318.466L-31.3176 319.875L-31.0275 322.983V326.525L-31.2269 329.164L-31.7164 331.332L-32.0064 333.591L-32.2964 336.284L-32.6227 338.597L-32.5321 340.44L-32.3327 341.669L-32.2421 343.169L-32.2783 344.867L-32.8947 345.626L-33.511 346.15L-34.0548 346.855L-34.5986 347.524L-35.0155 348.283L-34.8524 349.421L-34.1998 350.325L-34.3992 351.264L-35.1425 351.933L-35.9219 352.349L-36.1213 353.198L-35.795 354.047L-35.7044 355.367L-35.2875 356.541L-34.9612 357.68L-34.8705 359.288L-35.5775 360.607L-35.9038 361.601L-36.6108 362.685L-36.9371 364.239L-37.4809 365.414L-38.2604 367.203L-38.9673 368.107V369.191L-38.9311 370.42L-39.4205 371.92L-40.1275 372.48L-40.6169 373.148L-40.7801 374.287L-40.4901 375.696L-39.91 376.112L-39.2574 376.817L-38.7679 377.522L-38.9673 378.371L-39.3299 378.895L-39.6199 380.16L-40.1094 380.955L-40.5263 382.419L-40.7257 384.027L-40.5263 385.292L-40.3994 386.702L-40.1094 387.551L-39.7831 388.689L-39.6199 389.918L-40.1094 390.677L-40.8163 391.671L-41.3602 393.081L-41.9765 393.876L-42.756 394.725L-43.4086 395.285L-44.3149 396.749L-44.6775 398.213L-44.5506 399.243L-44.1337 400.562L-43.6805 401.122L-43.2273 402.062L-43.5898 403.435L-44.2424 404.465L-44.7319 405.694L-45.1488 406.544V406.959L-44.8587 407.664L-44.0793 408.333L-42.8829 409.001L-42.5928 410.031L-42.7922 410.592L-43.3723 411.061L-43.6986 411.965L-44.2787 412.146V412.561L-43.4992 413.085L-42.756 413.7L-41.6502 414.26L-41.1608 415.435L-40.7982 416.194V416.754L-41.1608 417.224V417.928C-41.1608 417.928 -40.7438 418.778 -40.7438 418.922C-40.7438 419.067 -40.1275 420.151 -40.1275 420.151L-39.1305 420.711L-37.9703 422.085L-36.4839 423.639L-35.4869 423.874L-34.2905 423.693L-33.8735 422.844L-33.2572 422.428L-32.8947 421.759L-32.7315 420.386L-32.1877 419.862L-31.6076 419.338L-30.7375 420.007L-30.7738 421.091L-31.3176 422.175L-31.8614 422.789L-32.3508 423.169L-32.8947 423.494L-33.6741 424.054V424.579L-32.6046 425.789L-31.3719 426.422L-29.7586 427H-27.1301L-25.3174 426.621L-23.2146 425.952L-21.9457 425.572L-19.716 425.193L-16.7975 424.579L-16.8881 423.404L-19.8429 423.115L-22.8883 422.645L-24.4473 421.416L-26.0969 419.248L-28.0728 416.898L-28.399 414.17L-27.819 412.182L-26.3325 410.772L-24.1028 408.694L-21.5469 406.616L-19.4804 403.508L-19.6435 401.249L-23.9216 400.399V399.171L-23.0152 397.942L-20.8762 395.593L-17.9939 392.665L-15.1117 389.557L-14.6222 387.388L-15.2023 387.009L-15.9455 387.388L-17.015 386.919L-17.7583 385.78L-18.574 384.461L-18.9003 382.762H-17.4138L-16.4168 383.431L-13.0451 384.931L-11.5587 384.172V382.762L-11.885 381.353L-11.7943 379.654L-11.1418 378.985L-10.6523 378.046L-9.58279 378.335L-7.44376 378.624L-4.2352 378.534L-1.44357 378.064L-0.12027 376.654L0.949219 375.516L1.94623 373.907L2.92511 372.028L3.66833 370.329L3.34207 369.191L2.01874 367.203L0.858582 365.215L-0.0477905 363.426L-0.210907 361.637V360.029L-0.0477905 358.8L0.369171 358.89L0.858582 360.878L1.27554 362.956L2.27255 365.414L4.50223 366.914L7.38446 366.824L9.36035 365.974L11.3906 363.986L13.856 361.294L15.705 358.746L16.0675 356.559L17.1189 353.722L17.7352 353.09L19.7655 352.873L20.7625 351.879L21.5601 350.469L23.536 348.283L25.0225 346.168L25.0768 344.958V342.699L24.7143 341.145L24.4605 339.518L24.9499 338.181L26.0557 337.332L27.0527 336.193L29.0286 335.127L30.8776 333.916L33.4155 332.85L35.3913 332.073L37.4941 331.368L40.0863 331.007L42.316 330.591L43.3674 328.893L43.8931 327.375L44.8539 325.08L46.0503 323.706L46.8297 322.007L47.6092 320.742L48.0443 319.568L48.0805 318.538L48.2074 316.026L48.57 314.11L49.15 312.629L49.4038 310.081L49.2407 308.743L48.9325 307.117L48.3162 306.195L48.2799 305.527L48.8056 304.605L49.857 302.87L51.8329 300.395L54.3708 297.322L56.7454 294.955L57.7424 292.443L58.54 290.636L59.3376 288.865L59.5189 287.311L60.0809 284.275L59.537 281.727ZM-53.9587 133.78L-53.1792 132.84L-52.4723 132.045L-50.7502 131.72H-48.3211H-46.2545L-45.2213 132.045L-45.1851 132.948L-45.4388 133.852L-46.3089 133.942L-47.4147 134.412L-48.0673 134.557L-49.2275 134.882L-50.297 135.587L-51.0765 135.912L-51.7834 136.328L-52.2729 136.888L-53.0523 137.557L-53.6687 137.936L-54.285 138.225L-54.8288 138.406L-55.8984 138.93L-56.4422 139.346L-57.0948 139.87L-57.9649 140.954L-58.835 141.568L-60.2671 141.984L-61.6629 141.568L-61.9167 141.243V140.954L-61.2641 140.394L-60.8109 139.454L-59.9408 138.695L-59.0706 138.279L-58.3274 138.045L-57.6205 137.629L-57.0041 137.484L-56.2246 136.165L-54.9014 134.991L-53.9587 133.78ZM-67.0105 125.286L-66.3579 125.521L-65.1615 125.937L-64.1645 126.172L-63.2943 126.081L-62.5511 126.136L-61.3547 125.955H-60.9378H-60.1583C-60.1583 125.955 -59.1794 126.1 -59.0525 126.19C-58.9256 126.28 -57.4392 126.425 -57.4392 126.425L-56.8228 127.13L-55.8802 127.925L-55.5902 128.864L-54.9376 130.003L-55.3908 130.906L-55.8077 131.521L-56.2246 131.575L-56.4784 131.159L-57.5117 130.455L-57.6748 129.551L-58.3818 129.262L-58.9256 128.937L-59.2519 129.262L-59.2157 130.021L-59.1794 131.25L-59.2157 132.244L-58.6356 133.274L-58.5993 133.942L-58.69 134.322L-58.8169 134.701L-59.5601 135.37L-60.3033 135.93L-61.2822 136.31L-62.2792 135.894L-62.6417 135.569L-63.0043 134.81C-63.0043 134.81 -63.1674 133.635 -63.1312 133.491C-63.0949 133.346 -63.2218 132.171 -63.2218 132.027C-63.2218 131.882 -63.2218 130.563 -63.2218 130.419C-63.2218 130.274 -63.7113 129.28 -63.7113 129.28L-64.0376 128.901L-64.7445 128.431L-66.1404 128.051L-67.5724 128.232L-68.7688 128.467L-69.3489 129.172L-69.8927 129.551C-69.8927 129.551 -70.3096 130.346 -70.4365 130.4C-70.5634 130.455 -71.0529 130.816 -71.0529 130.816L-71.4698 131.756L-71.8867 132.93L-71.923 136.274L-71.5605 137.918L-71.4335 139.093L-71.7236 139.562L-71.8142 140.231L-72.5212 140.755L-73.065 141.514H-74.2252L-74.8777 140.43L-75.2947 139.526L-75.5847 137.502L-75.3853 136.364L-75.1859 134.665L-75.6028 131.503V129.75L-75.0228 128.756L-74.4064 127.581L-73.6632 126.732L-72.8475 126.172L-71.5242 125.557L-69.4214 125.323L-67.0105 125.286ZM-84.1771 121.329C-84.1771 121.329 -83.8508 121.094 -83.7602 120.949C-83.6696 120.805 -83.2164 120.19 -83.2164 120.19L-81.2405 119.775C-81.2405 119.775 -80.4973 119.594 -80.3704 119.594C-80.2435 119.594 -79.2646 118.835 -79.2646 118.835L-78.2857 118.166L-77.5425 117.697L-76.6724 117.136L-75.7298 116.721L-75.1497 115.926L-74.1164 115.636C-74.1164 115.636 -73.5363 116.106 -73.21 116.197C-72.8837 116.287 -72.4306 116.901 -72.4306 116.901L-71.9774 117.317L-71.4335 118.166L-70.6178 118.546C-70.6178 118.546 -70.0015 119.07 -69.8383 119.07C-69.6752 119.07 -69.0951 119.16 -69.0951 119.16L-68.0618 119.54L-67.518 120.208L-67.6812 121.437L-67.8443 121.961L-68.2975 122.287L-69.6208 123.046H-72.6662L-74.5152 122.63L-75.621 121.961L-76.6905 121.437L-78.1226 121.817L-79.5546 122.106L-80.2616 122.521L-81.3311 123.046L-82.4913 123.461L-83.1982 123.082L-84.1409 122.666V121.329H-84.1771ZM-165.007 122.232L-165.279 122.72L-165.678 123.425L-166.258 123.913C-166.349 124.003 -166.494 124.003 -166.584 123.913L-166.911 123.624L-167.273 123.1L-167.835 122.467L-167.871 120.949L-168.651 119.739L-168.868 118.835L-170.5 118.564L-171.733 117.931L-172.53 117.046L-172.657 116.721L-173.219 116.16L-173.563 115.835L-174.216 115.167L-174.488 114.643V114.028C-174.488 113.793 -174.361 113.594 -174.18 113.504L-173.89 113.359L-173.02 113.685L-172.53 114.39L-171.733 115.058L-170.681 115.456L-169.757 115.853L-169.177 116.703L-168.687 116.919L-168.198 117.444L-167.763 117.697L-167.291 117.986L-166.893 118.763C-166.893 118.763 -166.222 119.251 -166.095 119.359C-165.968 119.467 -165.932 119.684 -165.932 119.684L-165.315 120.425L-165.007 121.275V122.232Z" fill="#20205B" fill-opacity="0.4"/>
<ellipse cx="235.4" cy="212.385" rx="4.49547" ry="4.49005" fill="#6686FF" fill-opacity="0.4"/>
<ellipse cx="358.276" cy="240.323" rx="4.49547" ry="4.49005" fill="#6686FF" fill-opacity="0.4"/>
<ellipse cx="33.6029" cy="333.117" rx="4.49547" ry="4.49005" fill="#6686FF" fill-opacity="0.4"/>
<ellipse cx="280.355" cy="96.6412" rx="4.49547" ry="4.49005" fill="#6686FF" fill-opacity="0.4"/>
<ellipse cx="260.374" cy="268.261" rx="4.49547" ry="4.49005" fill="#6686FF" fill-opacity="0.4"/>
</svg>
