<svg width="50" height="50" viewBox="0 0 50 50" fill="none" xmlns="http://www.w3.org/2000/svg">
<rect width="50" height="50" rx="7" fill="#FEB9D3"/>
<g clip-path="url(#clip0)">
<path d="M24.7673 19.6782V17.8694H19.3677V28.5306H24.7673V26.7218C23.1226 26.3939 21.8791 24.9396 21.8791 23.2C21.8791 21.4603 23.1226 20.0061 24.7673 19.6782Z" fill="#040932"/>
<path d="M20.2847 29.9368H23.8497V31.8477H20.2847V29.9368Z" fill="#040932"/>
<path d="M34.6949 28.9717C34.6949 25.4015 31.7904 22.4968 28.2201 22.4968H27.5383C27.2449 21.636 26.4288 21.0149 25.4699 21.0149C24.2651 21.0149 23.2849 21.9951 23.2849 23.1999C23.2849 24.4048 24.2651 25.385 25.4699 25.385C26.4288 25.385 27.2448 24.7639 27.5383 23.903H28.2201C31.015 23.903 33.2887 26.1768 33.2887 28.9716C33.2887 31.7662 31.0154 34.0397 28.221 34.0402H15.3057V37.0001H34.695V34.0402H32.2444C33.7365 32.853 34.6949 31.0223 34.6949 28.9717Z" fill="#040932"/>
<path d="M20.3828 16.4597H23.7507V14.4062H25.1569V13H18.9766V14.4062H20.3828V16.4597Z" fill="#040932"/>
</g>
<defs>
<clipPath id="clip0">
<rect width="24" height="24" fill="white" transform="translate(13 13)"/>
</clipPath>
</defs>
</svg>
