<svg width="50" height="50" viewBox="0 0 50 50" fill="none" xmlns="http://www.w3.org/2000/svg">
<rect width="50" height="50" rx="7" fill="#FFD84D"/>
<path d="M16.9995 25C18.1041 25 18.9995 24.1046 18.9995 23C18.9995 21.8954 18.1041 21 16.9995 21C15.8949 21 14.9995 21.8954 14.9995 23C14.9995 24.1046 15.8949 25 16.9995 25Z" fill="#040932"/>
<path d="M19.67 26.4C18.66 27.16 18 28.38 18 29.75V30H13.75C13.34 30 13 29.66 13 29.25V28.75C13 27.23 14.23 26 15.75 26H18.25C18.77 26 19.26 26.15 19.67 26.4Z" fill="#040932"/>
<path d="M33 25C34.1046 25 35 24.1046 35 23C35 21.8954 34.1046 21 33 21C31.8954 21 31 21.8954 31 23C31 24.1046 31.8954 25 33 25Z" fill="#040932"/>
<path d="M36.9996 28.75V29.25C36.9996 29.66 36.6596 30 36.2496 30H31.9996V29.75C31.9996 28.38 31.3396 27.16 30.3296 26.4C30.7396 26.15 31.2296 26 31.7496 26H34.2496C35.7696 26 36.9996 27.23 36.9996 28.75Z" fill="#040932"/>
<path d="M25 25.5C26.6569 25.5 28 24.1569 28 22.5C28 20.8431 26.6569 19.5 25 19.5C23.3431 19.5 22 20.8431 22 22.5C22 24.1569 23.3431 25.5 25 25.5Z" fill="#040932"/>
<path d="M27.7495 27H22.2495C20.7325 27 19.4995 28.233 19.4995 29.75V31.25C19.4995 31.664 19.8355 32 20.2495 32H29.7495C30.1635 32 30.4995 31.664 30.4995 31.25V29.75C30.4995 28.233 29.2665 27 27.7495 27Z" fill="#040932"/>
</svg>
