<svg width="25" height="26" viewBox="0 0 25 26" fill="none" xmlns="http://www.w3.org/2000/svg">
<path d="M24.5079 3.81624L22.0659 1.37405C21.8137 1.12254 21.4721 0.981304 21.1159 0.981304C20.7597 0.981304 20.4181 1.12254 20.1659 1.37405L20.053 1.4871C19.8014 1.73929 19.6602 2.08095 19.6602 2.43714C19.6602 2.79334 19.8014 3.135 20.053 3.38718L20.4284 3.76242L18.4004 5.79002L16.2991 3.6893C16.0469 3.43779 15.7053 3.29655 15.3491 3.29655C14.9929 3.29655 14.6513 3.43779 14.3991 3.6893L14.2862 3.80235C14.1614 3.92711 14.0625 4.07522 13.9949 4.23823C13.9274 4.40124 13.8927 4.57595 13.8927 4.75239C13.8927 4.92883 13.9274 5.10355 13.9949 5.26656C14.0625 5.42956 14.1614 5.57768 14.2862 5.70243L14.3987 5.81471L5.72802 14.4848C5.48418 14.7292 5.34724 15.0604 5.34724 15.4056C5.34724 15.7509 5.48418 16.082 5.72802 16.3264L6.22961 16.828L2.83806 20.22C2.77479 20.2833 2.73926 20.3691 2.73926 20.4586C2.73926 20.5481 2.77479 20.6339 2.83806 20.6972L3.77276 21.6319L0.307121 25.0976C0.274882 25.1287 0.24917 25.166 0.231484 25.2072C0.213799 25.2484 0.204494 25.2927 0.204114 25.3375C0.203733 25.3823 0.212284 25.4268 0.229268 25.4683C0.246252 25.5098 0.271328 25.5475 0.303034 25.5792C0.33474 25.6109 0.37244 25.6359 0.413935 25.6529C0.455429 25.6698 0.499888 25.6784 0.544716 25.678C0.589543 25.6776 0.633843 25.6683 0.675029 25.6506C0.716216 25.6329 0.753464 25.6071 0.784602 25.5749L4.25005 22.1094L5.18494 23.0441C5.21627 23.0755 5.25346 23.1004 5.29441 23.1174C5.33536 23.1344 5.37926 23.1431 5.42359 23.1431C5.46792 23.1431 5.51181 23.1344 5.55276 23.1174C5.59371 23.1004 5.63091 23.0755 5.66223 23.0441L9.05398 19.6526L9.55558 20.1542C9.80004 20.3979 10.1312 20.5348 10.4764 20.5348C10.8216 20.5348 11.1527 20.3979 11.3972 20.1542L12.4197 19.1317L17.0562 14.4948L20.0673 11.4835L20.1798 11.596C20.4319 11.8476 20.7736 11.989 21.1298 11.989C21.486 11.989 21.8277 11.8476 22.0798 11.596L22.1927 11.4829C22.4443 11.2308 22.5857 10.8892 22.5857 10.533C22.5857 10.1768 22.4443 9.83515 22.1927 9.58305L20.0922 7.48175L22.1198 5.45395L22.495 5.82938C22.7472 6.08093 23.0888 6.2222 23.445 6.2222C23.8012 6.2222 24.1429 6.08093 24.3951 5.82938L24.5079 5.71632C24.7596 5.46421 24.901 5.12253 24.901 4.76628C24.901 4.41004 24.7596 4.06835 24.5079 3.81624ZM8.5765 19.1753L5.42359 22.328L4.48908 21.3935L3.55457 20.4592L6.70709 17.3057L7.6418 18.2404L8.5765 19.1753ZM18.3632 12.2328L17.0554 10.9252C17.0243 10.8929 16.987 10.8672 16.9458 10.8495C16.9046 10.8318 16.8603 10.8225 16.8155 10.8221C16.7707 10.8217 16.7262 10.8302 16.6847 10.8472C16.6432 10.8642 16.6055 10.8892 16.5738 10.9209C16.5421 10.9526 16.517 10.9903 16.5001 11.0318C16.4831 11.0733 16.4745 11.1177 16.4749 11.1626C16.4753 11.2074 16.4846 11.2517 16.5023 11.2929C16.52 11.3341 16.5457 11.3713 16.5779 11.4025L17.8859 12.7103L16.8185 13.7787L16.0628 13.023C15.9994 12.9595 15.9134 12.9238 15.8237 12.9236C15.734 12.9235 15.6479 12.9591 15.5844 13.0224C15.5208 13.0858 15.4851 13.1718 15.485 13.2616C15.4849 13.3513 15.5204 13.4374 15.5838 13.5009L16.3393 14.2566L15.2711 15.325L13.9632 14.0166C13.9319 13.9852 13.8947 13.9604 13.8537 13.9434C13.8128 13.9264 13.7688 13.9177 13.7245 13.9177C13.6802 13.9177 13.6363 13.9264 13.5953 13.9434C13.5543 13.9604 13.5171 13.9852 13.4858 14.0166C13.4544 14.0479 13.4295 14.0851 13.4126 14.1261C13.3956 14.1671 13.3869 14.211 13.3869 14.2553C13.3869 14.2997 13.3956 14.3436 13.4126 14.3845C13.4295 14.4255 13.4544 14.4627 13.4858 14.4941L14.7936 15.8017L13.7254 16.8701L12.9697 16.1144C12.9384 16.083 12.9011 16.0582 12.8602 16.0412C12.8192 16.0242 12.7753 16.0155 12.731 16.0155C12.6866 16.0155 12.6427 16.0242 12.6018 16.0412C12.5608 16.0582 12.5236 16.083 12.4922 16.1144C12.4609 16.1458 12.436 16.183 12.419 16.2239C12.4021 16.2649 12.3933 16.3088 12.3933 16.3531C12.3933 16.3975 12.4021 16.4414 12.419 16.4823C12.436 16.5233 12.4609 16.5605 12.4922 16.5919L13.2494 17.3476L12.181 18.416L10.8725 17.1085C10.8092 17.0452 10.7233 17.0097 10.6338 17.0097C10.5443 17.0097 10.4585 17.0452 10.3952 17.1085C10.3319 17.1718 10.2963 17.2577 10.2963 17.3472C10.2963 17.4367 10.3319 17.5225 10.3952 17.5858L11.703 18.8938L10.9195 19.6771C10.8018 19.7946 10.6422 19.8606 10.4758 19.8606C10.3094 19.8606 10.1499 19.7946 10.0321 19.6771L6.20569 15.8493C6.08812 15.7316 6.02208 15.572 6.02208 15.4056C6.02208 15.2392 6.08812 15.0796 6.20569 14.9619L14.876 6.29219L19.5898 11.0062L18.3632 12.2328ZM21.7154 11.0056L21.6024 11.1187C21.4768 11.2438 21.3069 11.314 21.1297 11.314C20.9525 11.314 20.7826 11.2438 20.657 11.1187L14.7637 5.22457C14.7016 5.16252 14.6523 5.08884 14.6187 5.00774C14.5851 4.92664 14.5678 4.8397 14.5678 4.75191C14.5678 4.66412 14.5851 4.57718 14.6187 4.49608C14.6523 4.41498 14.7016 4.3413 14.7637 4.27925L14.8765 4.1662C15.002 4.04104 15.172 3.97075 15.3492 3.97075C15.5264 3.97075 15.6964 4.04104 15.8219 4.1662L18.1604 6.50537L19.3758 7.72078L21.715 10.0599C21.8403 10.1854 21.9107 10.3554 21.9108 10.5327C21.9108 10.71 21.8406 10.8801 21.7154 11.0056ZM19.6147 7.00485L18.8773 6.2675L20.9049 4.2399L21.6423 4.97724L19.6147 7.00485ZM24.0305 5.23942L23.9176 5.35247C23.7921 5.47763 23.6222 5.54792 23.4449 5.54792C23.2677 5.54792 23.0977 5.47763 22.9723 5.35247L22.3582 4.73841L21.1428 3.523L20.5297 2.90951C20.4045 2.7841 20.3341 2.6141 20.3341 2.43685C20.3341 2.25961 20.4045 2.08961 20.5297 1.9642L20.6426 1.85114C20.768 1.72599 20.938 1.6557 21.1152 1.6557C21.2924 1.6557 21.4624 1.72599 21.5879 1.85114L24.0307 4.29411C24.1559 4.41954 24.2262 4.58956 24.2262 4.76681C24.2261 4.94405 24.1557 5.11404 24.0305 5.23942Z" fill="white"/>
</svg>