<svg width="50" height="50" viewBox="0 0 50 50" fill="none" xmlns="http://www.w3.org/2000/svg">
<rect width="50" height="50" rx="7" fill="#7C77BA"/>
<path d="M33.9643 22.6095V19.3069C33.9643 18.8928 33.6285 18.5569 33.2143 18.5569C31.6201 18.5569 30.2059 19.5379 29.6984 21.1475C23.7015 14.9651 13 19.2267 13 27.9764C13 27.9797 13.0005 27.983 13.0005 27.9863C13.0059 30.0765 14.7078 31.7753 16.7993 31.7753H24.8244C25.2386 31.7753 25.5744 31.4395 25.5744 31.0253C25.5744 30.6111 25.2386 30.2753 24.8244 30.2753H16.7993C15.7942 30.2753 14.9383 29.6268 14.6266 28.7264H25.4195V27.9763C25.4195 26.5015 24.2197 25.3016 22.7449 25.3016C22.3307 25.3016 21.9949 24.9658 21.9949 24.5516C21.9949 24.1375 22.3307 23.8016 22.7449 23.8016C25.0468 23.8016 26.9195 25.6744 26.9195 27.9763V28.7264H36.25C36.6642 28.7264 37 28.3906 37 27.9764C37 25.6953 35.7811 23.7038 33.9643 22.6095ZM33.5421 26.1751C32.9942 26.1751 32.55 25.7309 32.55 25.1829C32.55 24.6349 32.9942 24.1908 33.5421 24.1908C34.0901 24.1908 34.5343 24.6349 34.5343 25.1829C34.5342 25.7309 34.09 26.1751 33.5421 26.1751Z" fill="#040932"/>
</svg>
