<svg width="50" height="50" viewBox="0 0 50 50" fill="none" xmlns="http://www.w3.org/2000/svg">
<rect width="50" height="50" rx="7" fill="#77CAEC"/>
<path d="M14.9219 37C15.9574 37 16.7969 36.1605 16.7969 35.125C16.7969 34.0895 15.9574 33.25 14.9219 33.25C13.8863 33.25 13.0469 34.0895 13.0469 35.125C13.0469 36.1605 13.8863 37 14.9219 37Z" fill="#040932"/>
<path d="M25 37C26.0355 37 26.875 36.1605 26.875 35.125C26.875 34.0895 26.0355 33.25 25 33.25C23.9645 33.25 23.125 34.0895 23.125 35.125C23.125 36.1605 23.9645 37 25 37Z" fill="#040932"/>
<path d="M27.6904 33.25C28.0622 33.7819 28.2812 34.4282 28.2812 35.125C28.2812 35.8218 28.0622 36.4681 27.6904 37H32.3877C32.0159 36.4681 31.7969 35.8218 31.7969 35.125C31.7969 34.4282 32.0159 33.7819 32.3877 33.25H27.6904Z" fill="#040932"/>
<path d="M17.6123 33.25C17.9841 33.7819 18.2031 34.4282 18.2031 35.125C18.2031 35.8218 17.9841 36.4681 17.6123 37H22.3095C21.9377 36.4681 21.7187 35.8218 21.7187 35.125C21.7187 34.4282 21.9377 33.7819 22.3095 33.25H17.6123Z" fill="#040932"/>
<path d="M35.0781 37C36.1137 37 36.9531 36.1605 36.9531 35.125C36.9531 34.0895 36.1137 33.25 35.0781 33.25C34.0426 33.25 33.2031 34.0895 33.2031 35.125C33.2031 36.1605 34.0426 37 35.0781 37Z" fill="#040932"/>
<path d="M26.7578 27.625H23.2422C22.8539 27.625 22.5391 27.9398 22.5391 28.3281V31.8438H27.4609V28.3281C27.4609 27.9398 27.1461 27.625 26.7578 27.625Z" fill="#040932"/>
<path d="M16.2109 27.625C15.8226 27.625 15.5078 27.9398 15.5078 28.3281V31.8438H20.4297V28.3281C20.4297 27.9398 20.1149 27.625 19.7266 27.625H16.2109Z" fill="#040932"/>
<path d="M30.2734 27.625C29.8851 27.625 29.5703 27.9398 29.5703 28.3281V31.8438H34.4922V28.3281C34.4922 27.9398 34.1774 27.625 33.7891 27.625H30.2734Z" fill="#040932"/>
<path d="M21.25 26.125C21.6383 26.125 21.9531 25.8102 21.9531 25.4219V24.0156C21.9531 23.7344 21.7855 23.4801 21.527 23.3694L18.6719 22.1457V20.5458C19.0921 20.3026 19.375 19.8486 19.375 19.3281C19.375 18.5515 18.7454 17.9219 17.9688 17.9219C17.1921 17.9219 16.5625 18.5515 16.5625 19.3281C16.5625 19.8485 16.8454 20.3026 17.2656 20.5458V22.1457L14.4105 23.3694C14.152 23.4801 13.9844 23.7344 13.9844 24.0156V25.4219C13.9844 25.8102 14.2992 26.125 14.6875 26.125C15.0758 26.125 15.3906 25.8102 15.3906 25.4219V24.4793L17.9688 23.3744L20.5469 24.4793V25.4219C20.5469 25.8102 20.8617 26.125 21.25 26.125Z" fill="#040932"/>
<path d="M36.2969 13H13.7031C13.3148 13 13 13.3148 13 13.7031C13 14.0914 13.3148 14.4062 13.7031 14.4062H27.4067L25.3773 17.9214C25.2467 18.1474 25.152 18.3841 25.0897 18.625H20.6914C20.7494 18.8498 20.7812 19.0852 20.7812 19.3281C20.7812 19.5711 20.7494 19.8064 20.6914 20.0312H25.0904C25.2726 20.7362 25.7263 21.3705 26.4067 21.7633C27.7519 22.54 29.472 22.0791 30.2486 20.7339L33.9019 14.4062H36.2969C36.6852 14.4062 37 14.0914 37 13.7031C37 13.3148 36.6852 13 36.2969 13ZM27.8125 20.0312C27.4242 20.0312 27.1094 19.7164 27.1094 19.3281C27.1094 18.9398 27.4242 18.625 27.8125 18.625C28.2008 18.625 28.5156 18.9398 28.5156 19.3281C28.5156 19.7164 28.2008 20.0312 27.8125 20.0312Z" fill="#040932"/>
</svg>
